<svg xmlns="http://www.w3.org/2000/svg" viewBox="0 0 1175.41 699.68"><defs><style>.cls-1{fill:#f2b8ff;}.cls-2{fill:#513e96;}</style></defs><g id="Layer_2" data-name="Layer 2"><g id="Vector_layer" data-name="Vector layer"><path class="cls-1" d="M747.37,226.44c0-.13.06-.27.08-.4l.12-.34c0,.11-.08.2-.11.31l.09-.44-.12.52-.09.27a2.25,2.25,0,0,0,.08-.24C747.4,226.23,747.39,226.34,747.37,226.44Z"/><path class="cls-1" d="M598.26,139.6c0,.13.1.27.16.4.21.37.42.73.65,1.1.47.65,1,1.3,1.49,1.92.12.13.23.25.36.37l.38.29.6.35c.55.25,1.09.47,1.65.69.24.08.49.13.74.2s.37,0,.56,0a7.73,7.73,0,0,1,2,.29l.13,0,.95-.4c.48-.27.94-.54,1.41-.83.66-.51,1.29-1,1.92-1.56,1-.94,1.93-1.91,2.84-2.91.16-.2.31-.4.46-.61l.24-.39c.12-.27.23-.55.34-.83.38-1.14.71-2.3,1-3.47s.31-2,.4-3.09q0-.45,0-.9s0-.09,0-.15a1,1,0,0,1,0-.16c-.26-.58-.54-1.15-.81-1.72-.65-1.26-1.34-2.5-2.07-3.71a7.44,7.44,0,0,1-1.16-.59l-1.45-.32a6.21,6.21,0,0,1-2.67-1.28l-1,.15c-.59.13-1.17.27-1.75.44-.34.13-.69.27-1,.42s-.57.32-.86.5l-.63.5c-.48.45-.95.9-1.41,1.37s-.82,1-1.22,1.55c-.58.9-1.13,1.8-1.66,2.74-.33.67-.64,1.34-.91,2-.07.22-.14.45-.19.67q-.14.79-.21,1.59c0,.35,0,.7,0,1,.07.72.15,1.43.26,2.15S598,138.86,598.26,139.6Z"/><path class="cls-1" d="M747.38,228.42a3.73,3.73,0,0,0,.16.35c.08.16.18.31.27.47a6.12,6.12,0,0,0,.39.5q.42.45.87.87c.62.51,1.25,1,1.9,1.46s1.16.71,1.75,1l.91.38c.38.11.76.22,1.14.31s.5.08.74.1H756l.34,0,.53-.16.55-.23q.33-.18.66-.39c.46-.32.9-.66,1.33-1s.83-.8,1.23-1.22.67-.83,1-1.25c.53-.81,1-1.63,1.48-2.49s.8-1.82,1.15-2.76c.15-.5.28-1,.41-1.5,0-.24.07-.49.11-.73v-.5l0-.25-.08-.1c-.2-.2-.39-.4-.6-.6a7.31,7.31,0,0,1-1.06-1.32l-.06,0c-.51-.23-1-.44-1.54-.65-1.07-.33-2.13-.63-3.22-.89-.55-.09-1.08-.17-1.63-.23H756l-.23,0-.7.19c-.26.1-.51.2-.76.32-.67.35-1.31.73-2,1.14l-.76.58c-.47.44-.92.89-1.36,1.37s-.59.75-.87,1.13c-.45.72-.87,1.44-1.26,2.18-.16.34-.3.69-.43,1s-.19.67-.28,1-.08.43-.11.65v.54l0,.38C747.31,228.2,747.34,228.31,747.38,228.42Z"/><path class="cls-1" d="M1175,474.83a8.54,8.54,0,0,1,0-1.43,53.25,53.25,0,0,0-.79-10.62c-.31-1.6-.23-3.29-.45-4.91-.3-2-.77-4-1.14-6q-.45-2.48-.87-4.92c-.41-2.27-.75-4.54-1.24-6.8-.44-2-1.07-4-1.6-6-.69-2.64-1.26-5.3-2.07-7.88-1.12-3.65-2.36-7.29-3.64-10.88-1-2.76-2.17-5.47-3.2-8.21-1.71-4.51-3.76-8.87-5.9-13.19s-4.54-8.82-7-13.16c-3-5.39-6.4-10.52-9.91-15.58-1.64-2.37-3.33-4.73-5.1-7-2.51-3.3-5.11-6.55-7.73-9.78-1.14-1.38-2.36-2.7-3.6-4-2.9-3.07-5.75-6.2-8.77-9.14-3.62-3.53-7.29-7.07-11.15-10.32-5-4.22-10.11-8.3-15.51-12-4.63-3.18-9.24-6.33-14-9.22-3.9-2.31-7.9-4.42-11.88-6.6-3.11-1.68-6.32-3.1-9.47-4.67-3.57-1.76-7.43-3-11.1-4.55a145.1,145.1,0,0,0-14-4.93c-4.26-1.34-8.57-2.58-12.93-3.57-2.7-.63-5.38-1.43-8.1-2-1.89-.41-3.84-.53-5.75-.88s-4-.79-6-1.15c-1.2-.21-2.44-.33-3.65-.45-1.85-.16-3.7-.23-5.53-.43-2.19-.22-4.37-.58-6.58-.77a26.19,26.19,0,0,0-2.94,0c-.57,0-1.14,0-1.71,0a13.41,13.41,0,0,1-2.25-.3c-5.46-.1-10.8-.1-16.15-.1-.18.14-.34.38-.52.38-.58,0-1.16,0-1.73,0s-1.15,0-1.72,0c-2.66.12-5.32.22-8,.43a59.16,59.16,0,0,0-7.17.83c-.28.06-.57.1-.85.15-.18-.94-.37-1.89-.57-2.83-.73-3.31-1.76-6.56-2.62-9.84-1.13-4.31-2.05-8.65-3.38-12.86-1.82-6-3.85-11.9-5.93-17.77-1.63-4.5-3.55-8.91-5.24-13.38-2.79-7.36-6.13-14.49-9.61-21.55-3.58-7.29-7.43-14.38-11.4-21.47-4.94-8.78-10.44-17.17-16.17-25.42-2.69-3.88-5.44-7.72-8.32-11.47-4.11-5.4-8.36-10.7-12.63-16-1.85-2.26-3.84-4.41-5.87-6.53-4.73-5-9.38-10.11-14.31-14.92-5.9-5.76-11.9-11.53-18.2-16.83-8.19-6.89-16.5-13.56-25.32-19.59-7.55-5.2-15.08-10.34-22.93-15-6.37-3.77-12.9-7.22-19.39-10.76-5.07-2.75-10.31-5.08-15.44-7.63-5.84-2.88-12.13-4.84-18.13-7.42-7.43-3.18-15.12-5.63-22.84-8.06-7-2.18-14-4.2-21.11-5.83-4.4-1-8.78-2.32-13.22-3.24-3.08-.67-6.27-.87-9.38-1.43C648,4.71,644.76,4,641.48,3.38c-2-.33-4-.53-6-.73-3-.26-6-.36-9-.7-3.58-.36-7.13-1-10.74-1.25A45.19,45.19,0,0,0,611,.64c-.93,0-1.86,0-2.79,0a21,21,0,0,1-3.68-.5C595.58,0,586.86,0,578.15,0c-.3.23-.57.63-.87.63-.94,0-1.89,0-2.83,0s-1.87,0-2.8,0c-4.34.2-8.68.37-13,.7A97.46,97.46,0,0,0,547,2.72c-6,1.19-12.23,1.46-18.23,3.11-2.45.67-5.14.8-7.72,1.43-4.34,1-8.78,1.62-13.13,2.72-6.36,1.62-12.72,3.38-19,5.3-9.74,3-19.35,6.49-28.87,10.27a336.26,336.26,0,0,0-31.18,14.32C421,44,413.47,48.72,405.88,53.32c-4.68,2.86-9.29,5.9-13.82,9-3.82,2.58-7.56,5.3-11.24,8-5,3.78-9.91,7.63-14.78,11.5-1.79,1.4-3.52,2.89-5.14,4.44-9.21,9-18.66,17.73-27.54,27-6,6.27-11.1,13.29-16.73,19.86-6.17,7.22-11.47,15.07-16.81,22.9-4.24,6.23-8.28,12.66-11.93,19.25-2.07,3.75-4.09,7.53-6.09,11.33-.84-.1-1.69-.2-2.55-.27a35.56,35.56,0,0,0-3.58,0l-2.08,0a17.56,17.56,0,0,1-2.74-.37c-6.65-.13-13.15-.13-19.65-.13-.22.17-.42.47-.64.47-.71,0-1.41,0-2.11,0s-1.4,0-2.1,0c-3.24.15-6.47.27-9.68.51a75,75,0,0,0-8.73,1c-4.5.89-9.12,1.08-13.6,2.32-1.83.49-3.83.6-5.76,1.06-3.24.77-6.55,1.22-9.79,2-4.74,1.21-9.49,2.52-14.18,4-7.27,2.22-14.44,4.84-21.53,7.66a248.08,248.08,0,0,0-23.27,10.68c-5.85,3-11.44,6.6-17.1,10-3.49,2.13-6.92,4.4-10.31,6.73-2.84,1.93-5.63,4-8.38,6q-5.56,4.23-11,8.58a46.73,46.73,0,0,0-3.83,3.32c-6.88,6.67-13.92,13.22-20.54,20.14-4.45,4.67-8.29,9.91-12.49,14.8a197.06,197.06,0,0,0-12.53,17.09c-3.16,4.65-6.18,9.44-8.9,14.36-3.9,7.07-7.64,14.29-11.17,21.55-2.18,4.45-3.79,9.15-5.71,13.7a209.58,209.58,0,0,0-7.07,20.32A123.46,123.46,0,0,0,6.93,387c-.6,3.31-1.71,6.55-2.4,9.86-.5,2.38-.65,4.85-1,7.25-.45,2.76-1,5.51-1.46,8.28-.27,1.9,0,3.93-.57,5.7-.79,2.5.17,5.12-.91,7.54-.1.2,0,.48,0,.72-.17,6.46-.37,12.9-.49,19.33q-.12,5.56,0,11.13c.09,3.63.24,7.29.49,10.92.24,3.31.54,6.65,1,10,.55,4,1.29,7.87,1.95,11.8s1.22,8,2,12c.72,3.71,1.56,7.39,2.57,11,1.95,6.92,3.83,13.86,6.3,20.64,1.36,3.71,2.67,7.44,4.18,11.1,3.11,7.53,6.33,15.05,10.18,22.24,3.07,5.74,6.06,11.55,9.69,17,3,4.45,5.59,9.12,8.65,13.47s6.53,8.7,9.94,12.95c2.65,3.29,5.49,6.45,8.18,9.71a191.93,191.93,0,0,0,14.88,15.82c3.49,3.37,7,6.68,10.78,9.77,5.37,4.45,10.78,8.82,16.42,12.92,5,3.64,10.33,6.83,15.49,10.26s10.81,6.46,16.34,9.5c5.37,2.91,11,5.36,16.47,8,4.27,2,8.65,3.81,13.07,5.44,5.22,1.95,10.46,3.86,15.84,5.36,3.55,1,7.07,2.06,10.63,3H995.4c1.57-.24,3.12-.49,4.66-.77,1.89-.33,3.74-.78,5.61-1.2,4.67-1.12,9.32-2.26,14-3.51,5-1.35,9.8-3.13,14.72-4.66,2.8-.87,5.48-2.13,8.22-3.2a187.77,187.77,0,0,0,20.51-9.77q5.25-2.84,10.36-5.89c2.51-1.48,5-3,7.41-4.67,3.21-2.24,6.33-4.61,9.5-7,3.8-2.78,7.35-5.84,11-8.85,6.54-5.42,12.35-11.57,18.26-17.6,3.3-3.37,6.25-7.09,9.21-10.79,4.84-6,9.26-12.32,13.49-18.78,2-2.94,3.77-6,5.46-9.1,2.58-4.75,5.12-9.52,7.45-14.38,2.07-4.28,4-8.63,5.63-13.09,1.36-3.7,2.82-7.37,4-11.13a151.19,151.19,0,0,0,4.47-15.62c.81-4,2-7.86,2.78-11.81.59-2.85.75-5.77,1.28-8.64.6-3.32.79-6.72,1.28-10,.38-2.68.14-5.32.32-8a3,3,0,0,1,.3-1c.11-8.43.11-16.76.11-25.08C1175.26,475.05,1175,475,1175,474.83ZM501.84,310.42l13.64,0c-.43-16.56-.78-33.11-1.16-49.67v-.3c0-.67,0-1.33-.05-2a8.5,8.5,0,0,1,.05-1q0-37,.07-74,0-10.73,0-21.44a7.5,7.5,0,1,1,15-.3q-.06,30.92-.06,61.84,0,18.41,0,36.81v.09c.37,16.67.72,33.36,1.15,50l25.61,0q-.14-26.79-.29-53.55a7.7,7.7,0,0,1,.14-4.46,7.6,7.6,0,0,1,4.43-5.3c7.26-6.66,14.65-13.17,22-19.77l16.08-14.5c-.25-18.16-.6-36.32-.95-54.48l-.08,0a21.47,21.47,0,0,1-8.88-6.46,26,26,0,0,1-6-16.26,25,25,0,0,1,2-10.76,30.67,30.67,0,0,1,2.6-4.78,32.62,32.62,0,0,1,7.77-8.54,23.33,23.33,0,0,1,9.29-3.88,22.88,22.88,0,0,1,10.57,0,15,15,0,0,1,5.92,3.08l.82.4a12.29,12.29,0,0,1,4.2,4.22c.57.87,1.11,1.75,1.64,2.64.83,1.4,1.52,2.88,2.24,4.33a28.26,28.26,0,0,1,1.48,3.7,17.48,17.48,0,0,1,.42,6.64,36.28,36.28,0,0,1-2.38,10.47,25.58,25.58,0,0,1-6.48,9.07,31.3,31.3,0,0,1-10.14,6.82q.49,27,.94,54c0,1.06,0,2.12.06,3.17a7.35,7.35,0,0,1-3.05,6h0L592.8,238.16c-7.33,6.62-14.74,13.15-22,19.82q.15,26.26.28,52.54h10.07l18.9,0c.05-18.09.27-36.18.39-54.27a7.5,7.5,0,0,1,15,.22c-.12,18-.34,36.05-.39,54.07l27,0q.06-27.53.15-55.05a9,9,0,0,1,.57-3.16A7,7,0,0,1,645.2,248q16.89-13.82,33.71-27.71a8,8,0,0,1,2.56-1.41,8.07,8.07,0,0,1,4.5-1.26q24.48-.19,49-.32a27.59,27.59,0,0,1,1.59-2.78,28,28,0,0,1,8.92-8.67,20,20,0,0,1,10.5-3.28,34.44,34.44,0,0,1,8.19,1.28c4.33,1.12,8.8,3.36,11.75,6.78a6.55,6.55,0,0,1,1.29,2.39,15.76,15.76,0,0,1,2,4.38,15.49,15.49,0,0,1,.52,4.5,21.77,21.77,0,0,1-.69,5.2,32.09,32.09,0,0,1-13.88,19.22,18.39,18.39,0,0,1-9.45,2.6c-.33,0-.65,0-1,0a23.79,23.79,0,0,1-10.9-3.55,27.64,27.64,0,0,1-8.33-7.52,17.4,17.4,0,0,1-2.63-5.53q-22.67.13-45.32.3-15.19,12.49-30.41,25-.1,26.55-.15,53.09h6.36l10.62,0a7.88,7.88,0,0,1,5.15,1.7,7.64,7.64,0,0,1,6.13,7.77c-.24,7.73-.37,15.46-.49,23.2l54.87-.17c5-11.8,9.7-23.7,14.56-35.55A7.35,7.35,0,0,1,756,305a7.5,7.5,0,0,1,1.83-2.59,7.75,7.75,0,0,1,5.39-2c12.79,0,25.57-.15,38.35-.24l40.5-.24,39.62-.24c4.09,0,7.33,3.9,7.15,7.83a7.47,7.47,0,0,1-2.44,5.19,7.73,7.73,0,0,1-5.39,2l-68.29.42c-15.17.09-30.34.26-45.51.29-4.78,11.72-9.49,23.47-14.4,35.15,0,.11,0,.23,0,.35a7.48,7.48,0,0,1-2.4,5.22,7.72,7.72,0,0,1-5.38,2l-60.51.19q-.21,10.6-.41,21.21,25.71.31,51.41.69a7.5,7.5,0,0,1-.33,15h-.1q-25.64-.36-51.27-.69c0,1.51-.05,3-.08,4.54q-.18,9-.35,18c19.57,0,39.15-.23,58.72-.36l0-.05c6.23-11.16,12.35-22.38,18.54-33.57a6.87,6.87,0,0,1,2.48-2.54,8,8,0,0,1,5.48-2.16c20.25,0,40.5.26,60.74.39.41-1.14.88-2.24,1.38-3.31a29.11,29.11,0,0,1,13.71-14,21.81,21.81,0,0,1,8.42-1.82,25.9,25.9,0,0,1,8.56,1.3c3.64,1.21,7.28,3.21,9.56,6.38a8,8,0,0,1,1.47,3.84,13.08,13.08,0,0,1,1.15,2.38,25.89,25.89,0,0,1,1.49,4.67,16.82,16.82,0,0,1,.08,2.84c-.05,1.68-.13,3.36-.33,5-1,8-7.73,13.79-14.15,17.9a21.62,21.62,0,0,1-7.88,3.08,18.65,18.65,0,0,1-3.14.26,21.34,21.34,0,0,1-7.15-1.3,40.6,40.6,0,0,1-5-2.13,18.21,18.21,0,0,1-8-7.79,17.68,17.68,0,0,1-1-2.32l-56.39-.37c-5.69,10.31-11.34,20.65-17.08,30.94a8.09,8.09,0,0,1-.7,1c-.58,3.29-3.37,6.28-6.87,6.31l-62.85.38H683.1l-.42,21.69c17.35.23,34.69.38,52,.56a5.78,5.78,0,0,1,1.19.14,7.45,7.45,0,0,1,1.64-.22c9.12-.19,18.23-.52,27.35-.82q8.88-16.44,17.74-32.91a7.44,7.44,0,0,1,7.73-3.58h.13l32.24,0a7.5,7.5,0,0,1,.06,15l-29.28,0q-8.29,15.38-16.59,30.75a7.62,7.62,0,0,1-7.12,5.58c-10.68.33-21.35.76-32,1h-.14a7.45,7.45,0,0,1-1.65-.2,9.5,9.5,0,0,1-2.22.24h-.12c-17.08-.18-34.17-.33-51.26-.55-.06,3.42-.13,6.85-.2,10.27,0,2.14-.07,4.29-.12,6.43v.09a7.4,7.4,0,0,1,1,3.9,7.59,7.59,0,0,1-7.7,7.23h-.05l-18.61-.12q-.71,25.6-1.45,51.22a7.5,7.5,0,0,1-15,0q.76-25.66,1.45-51.31-12-.07-24-.15-.54,24-1.08,48,15.95,11.91,31.9,23.79a7.59,7.59,0,0,1,4.43,7.17q-.7,16.68-1.43,33.36a7.58,7.58,0,0,1-7.5,7.15h-.34a7.58,7.58,0,0,1-7.14-7.84q.62-14.57,1.25-29.13l-33.45-24.93a7.68,7.68,0,0,1-2.74-8.64q.51-24.51,1.1-49L573.85,496q-.48,25.25-1,50.47a7.21,7.21,0,0,1,.23,1.92c-.43,17.06-1,34.12-1.49,51.17a34.24,34.24,0,0,1,5,1.41,19.67,19.67,0,0,1,8.76,6.79c.12.16.24.33.35.5l.08.1a7.42,7.42,0,0,1,1.46,3.47,15.05,15.05,0,0,1,1,2,25.76,25.76,0,0,1,2.08,11.26,36.38,36.38,0,0,1-3,11.76,25.34,25.34,0,0,1-5.14,8.17A26.69,26.69,0,0,1,578,648.5a22.18,22.18,0,0,1-6.22,2.58,24.56,24.56,0,0,1-6.92,1,28,28,0,0,1-6.49-.77,27.05,27.05,0,0,1-11-5.39c-6.35-5.18-9.06-13.23-8.88-21.23.19-8.34,3.58-16.84,10.16-22.14a17.11,17.11,0,0,1,8-3.41q.68-23.82,1.38-47.66a8.3,8.3,0,0,1-.18-1.81q.52-26.85,1-53.71l-24.07-.16q-.74,27.75-1.37,55.51l0,.67a7.55,7.55,0,0,1-7.51,7.11h-.36a7.59,7.59,0,0,1-7.11-7.87q.68-27.76,1.37-55.52l-8.08-.07-2.67-.09c-1.91-.06-3.83-.1-5.74-.13l-2.8,0h0c-.33-.32-.66-.63-1-.94-1.05-.95-2.12-1.88-3.14-2.86l-1.76-1.69V489a6.33,6.33,0,0,1-.05-1.15c0-.24,0-.47.06-.7q.06-15.71.13-31.42l-10.24.39-19.79.71-21.84.77-20.24,30.38a10.14,10.14,0,0,1-1.38,1.66,7.69,7.69,0,0,1-7.32,5.16c-23,0-46-.21-69-.31l-4.49,0c-.05.12-.09.24-.14.35a25.13,25.13,0,0,1-6.53,9.12,19.68,19.68,0,0,1-8.66,4.22,18.46,18.46,0,0,1-4.05.43,30.82,30.82,0,0,1-7.25-1,27.51,27.51,0,0,1-9.27-4.57,26,26,0,0,1-7.15-7.43,21.25,21.25,0,0,1-.58-20.73,34.13,34.13,0,0,1,6.81-8.94,30.1,30.1,0,0,1,8.52-5.92,23.79,23.79,0,0,1,5-1.63,20.69,20.69,0,0,1,5.72-.22,11.9,11.9,0,0,1,4.48,1.44A16.23,16.23,0,0,1,331,462.4l-.07-.06a7.86,7.86,0,0,1,1.9,2.68c.53.53,1.06,1.07,1.58,1.61a45.27,45.27,0,0,1,5.4,6.26,17.55,17.55,0,0,1,2.64,6.54q29.57.12,59.11.27l8.51,0q10.74-16.1,21.47-32.21a7.61,7.61,0,0,1,6.79-4.82l25.46-.91,20-.72,11-.4q0-8.51.07-17c0-.68,0-1.36,0-2q-33.74,1.59-67.46,3.21l-7.29.35h-.39a7.58,7.58,0,0,1-7.73-6.83c-.34-3.95,2.73-7.93,6.82-8.13l67.4-3.21,8.71-.42q0-9.72.08-19.45-32.68.66-65.38,1.33l-1.22,0a7.54,7.54,0,0,1-2.65.49,7.46,7.46,0,0,1-6.5-3.67q-8.86-15.6-17.8-31.15c-21.54.31-43.07.8-64.61,1.21l-1.8,0h-.16c-.33,0-.65,0-1-.06a30.44,30.44,0,0,1-2.13,3.76,41.08,41.08,0,0,1-3.7,4.82,17.91,17.91,0,0,1-4.29,3.62,19.94,19.94,0,0,1-6,2.15,12,12,0,0,1-2.24.19,33.66,33.66,0,0,1-3.37-.22,25.24,25.24,0,0,1-6-1.33,27.21,27.21,0,0,1-9.32-5.83,24.3,24.3,0,0,1-6.2-9.19,25.72,25.72,0,0,1-1.37-12.77,24.45,24.45,0,0,1,4.48-11.07,23.64,23.64,0,0,1,9.63-7.68,22.57,22.57,0,0,1,11.78-1.4,21.25,21.25,0,0,1,8.62,3l.21.14a21.39,21.39,0,0,1,11,10.16,18.81,18.81,0,0,1,2.14,6.64q30.46-.54,60.93-1.12l7-.12a7.9,7.9,0,0,1,6.18,2.79,7,7,0,0,1,1.63,1.91q8.48,14.82,16.94,29.64,32.66-.64,65.31-1.33,0-9.69.08-19.37-23.5.39-47,.81a8.18,8.18,0,0,1-1.31.12h-.13a6.61,6.61,0,0,1-1.1-.12A7.43,7.43,0,0,1,439.8,350q-12.69-11.55-25.34-23.13h-42a7.5,7.5,0,0,1,.45-15h43a6.86,6.86,0,0,1,2.71.58,6.59,6.59,0,0,1,4.09,1.67c8.92,8.16,17.92,16.26,26.81,24.46l45.63-.78c0-5.74,0-11.49.07-17.22a7.44,7.44,0,0,1-.49-2.28C494.54,314.38,497.75,310.42,501.84,310.42Z"/><path class="cls-1" d="M668.52,410.74c.46-26.95,1-53.89,1.56-80.83l.06-4.27-18.75,0a7.28,7.28,0,0,1-1.54.25h-.32a7.41,7.41,0,0,1-1.88-.26l-46.47-.07q-40.44-.06-80.87-.12H510.19q-.17,38.83-.31,77.68t-.32,77.49c10.73,0,21.46.17,32.19.23l39.54.26,80.52.51,5.34,0Q667.86,446.18,668.52,410.74Zm-25.81-18.52q-.23,20.34-.47,40.66-.09,8.12-.19,16.24a7.58,7.58,0,0,1-7.46,7.47,8,8,0,0,1-4.88,1.72l-70.09.58c-5.35.05-10.7.13-16,.13a7.37,7.37,0,0,1-6.19-3.58,7.6,7.6,0,0,1-5-7.16q.36-38.59.71-77.18.07-7.39.14-14.77a7.54,7.54,0,0,1,4-6.54,7.63,7.63,0,0,1,5.62-2.6q39.95-.58,79.9-1.14l12.28-.17a7.21,7.21,0,0,1,3.75,1,7.59,7.59,0,0,1,4.36,6.83C643.16,366.54,642.86,379.39,642.71,392.22Z"/><path class="cls-1" d="M570.47,614.7c-.62-.19-1.24-.35-1.86-.5-1.32-.2-2.63-.34-4-.45-1,0-1.92-.06-2.88-.06l-1.48,0c-.4,0-.8.1-1.2.17l-.45.12-.44.18-.36.21c-.15.1-.29.22-.43.33l-.47.47c-.24.29-.47.58-.69.89-.38.6-.73,1.2-1.07,1.82s-.52,1.22-.76,1.85-.39,1.42-.56,2.14-.24,1.62-.32,2.45,0,1.68,0,2.53c.07.65.16,1.29.28,1.94s.31,1.2.5,1.79l.39.93c.19.34.38.67.58,1l.47.6c.37.4.75.78,1.15,1.16.27.22.55.43.83.64.45.29.9.55,1.36.81s.95.41,1.44.6.82.24,1.23.34c.83.14,1.65.25,2.49.33.46,0,.91,0,1.36,0s1-.11,1.44-.2,1-.24,1.46-.39,1-.39,1.49-.61l.37-.22.52-.42c.17-.15.33-.32.49-.48.32-.39.63-.78.93-1.19s.5-.86.74-1.31c.46-1,.86-2.06,1.24-3.11.38-1.2.7-2.39,1-3.6,0-.34.1-.67.14-1s0-.53,0-.79c0-.54-.12-1.08-.2-1.62s-.29-1.17-.47-1.76c-.05-.13-.11-.25-.16-.39s-.07-.11-.11-.17c-.36-.49-.73-1-1.13-1.45l-.24-.26a8.15,8.15,0,0,1-1.75-3Q570.91,614.87,570.47,614.7Z"/><path class="cls-1" d="M327.61,481.83l-.17-.38c-.05-.1-.11-.19-.17-.29-.25-.36-.52-.71-.8-1.06-2.2-2.39-4.46-4.76-6.84-7l-.49.13-.95.4c-.55.3-1.1.62-1.63.95-.7.49-1.37,1-2,1.56s-1.36,1.3-2,2c-.5.61-1,1.24-1.47,1.87s-.72,1.2-1.06,1.82c-.12.28-.24.56-.35.84s-.18.62-.26.94-.06.52-.1.79,0,.5,0,.75.07.51.11.77.12.48.19.71.17.41.26.6l.33.55c.15.21.31.42.47.62.53.57,1.08,1.11,1.65,1.63s1.17.92,1.77,1.36,1.05.65,1.59.94l1,.4c.58.18,1.16.35,1.75.49.77.14,1.52.25,2.29.33h.59l.66-.08c.23-.06.46-.12.69-.2a7,7,0,0,0,.75-.32l.29-.17a3.15,3.15,0,0,0,.29-.22l.57-.58c.22-.27.44-.55.65-.83.39-.61.76-1.22,1.11-1.86s.48-1.09.69-1.66.29-1,.4-1.45c.18-1,.32-1.93.42-2.91,0-.25,0-.49,0-.73s0-.21,0-.32S327.64,482,327.61,481.83Z"/><path class="cls-1" d="M322,341.49c-.06-.14-.12-.28-.19-.42-.22-.42-.47-.83-.72-1.23l-.75-1c-.27-.28-.55-.55-.83-.82l-.09-.07-.2-.12c-.22-.09-.45-.19-.68-.27-.38-.11-.76-.2-1.15-.29a6.36,6.36,0,0,1-3.19-1.75l-.61-.16c-.52-.08-1.05-.16-1.57-.21h-.71c-.34,0-.69.08-1,.13l1-.2a15.68,15.68,0,0,0-1.94.47l-.77.32-.74.43c-.25.18-.5.37-.73.57s-.47.46-.7.7-.38.47-.56.71c-.29.46-.56.93-.82,1.4s-.3.69-.43,1-.27.88-.38,1.33c-.11.64-.2,1.27-.26,1.92,0,.35,0,.69,0,1.05a10.37,10.37,0,0,0,.15,1.1c.14.6.3,1.2.49,1.79.13.33.27.66.42,1s.27.5.42.74c.31.42.62.83,1,1.24s.83.83,1.27,1.23.87.71,1.32,1,.79.47,1.19.69a14.27,14.27,0,0,0,1.79.67l-.93-.32c.4.13.81.23,1.22.33q1.26.21,2.52.33h.74l.15,0,.17-.05.13-.05.11-.07a2.34,2.34,0,0,0,.31-.24c.24-.22.46-.44.68-.68.83-1,1.58-2,2.32-3.08l.72-1.21q.5-1,.93-2.13.54-1.65,1-3.33c.07-.44.14-.88.2-1.33,0-.18,0-.35,0-.53a.13.13,0,0,1,0-.06C322.12,341.9,322.06,341.69,322,341.49Z"/><path class="cls-1" d="M842.74,389.18l.06.16.06.1.21.28.17.17.34.26c.29.18.58.35.87.5,1.07.5,2.16.93,3.27,1.34.45.14.91.26,1.37.37l.26,0h.39l.56-.08c.32-.08.63-.16,1-.26l.42-.17c.93-.5,1.83-1.05,2.72-1.64.72-.52,1.43-1.06,2.12-1.63s1.47-1.41,2.17-2.16c.35-.43.69-.85,1-1.28a.36.36,0,0,1,0-.09c.07-.27.15-.54.22-.82.07-.48.13-.95.18-1.43,0-.78.08-1.57.09-2.35-.21-.58-.43-1.16-.67-1.73-.77-1.08-1.48-2.2-2.22-3.31l-.4-.16c-.47-.14-.92-.28-1.39-.39s-1-.16-1.55-.21h-.74c-.46.05-.92.11-1.38.19s-.91.23-1.36.37l-.51.21-.58.35c-.3.22-.59.44-.87.67-.64.6-1.26,1.22-1.87,1.85-.41.5-.8,1-1.18,1.52s-.73,1.21-1.07,1.83c-.39.82-.76,1.64-1.09,2.49-.18.58-.33,1.16-.48,1.74s-.19,1.28-.25,1.92c0,.26,0,.51,0,.76s0,.23,0,.35A2.41,2.41,0,0,1,842.74,389.18Z"/><path class="cls-2" d="M494.74,318.3a7.44,7.44,0,0,0,.49,2.28c0,5.73-.05,11.48-.07,17.22l-45.63.78c-8.89-8.2-17.89-16.3-26.81-24.46a6.59,6.59,0,0,0-4.09-1.67,6.86,6.86,0,0,0-2.71-.58h-43a7.5,7.5,0,0,0-.45,15h42Q427.12,338.44,439.8,350a7.43,7.43,0,0,0,5.75,3.62,6.61,6.61,0,0,0,1.1.12h.13a8.18,8.18,0,0,0,1.31-.12q23.51-.42,47-.81,0,9.68-.08,19.37-32.65.66-65.31,1.33-8.44-14.83-16.94-29.64a7,7,0,0,0-1.63-1.91,7.9,7.9,0,0,0-6.18-2.79l-7,.12q-30.47.57-60.93,1.12a18.81,18.81,0,0,0-2.14-6.64,21.39,21.39,0,0,0-11-10.16l-.21-.14a21.25,21.25,0,0,0-8.62-3,22.57,22.57,0,0,0-11.78,1.4,23.64,23.64,0,0,0-9.63,7.68,24.45,24.45,0,0,0-4.48,11.07,25.72,25.72,0,0,0,1.37,12.77,24.3,24.3,0,0,0,6.2,9.19,27.21,27.21,0,0,0,9.32,5.83,25.24,25.24,0,0,0,6,1.33,33.66,33.66,0,0,0,3.37.22,12,12,0,0,0,2.24-.19,19.94,19.94,0,0,0,6-2.15,17.91,17.91,0,0,0,4.29-3.62,41.08,41.08,0,0,0,3.7-4.82,30.44,30.44,0,0,0,2.13-3.76c.31,0,.63.06,1,.06H335l1.8,0c21.54-.41,43.07-.9,64.61-1.21q8.91,15.57,17.8,31.15a7.46,7.46,0,0,0,6.5,3.67,7.54,7.54,0,0,0,2.65-.49l1.22,0q32.69-.64,65.38-1.33,0,9.74-.08,19.45l-8.71.42-67.4,3.21c-4.09.2-7.16,4.18-6.82,8.13a7.58,7.58,0,0,0,7.73,6.83h.39l7.29-.35q33.72-1.61,67.46-3.21c0,.67,0,1.35,0,2q0,8.5-.07,17l-11,.4-20,.72-25.46.91a7.61,7.61,0,0,0-6.79,4.82Q420.75,463.64,410,479.74l-8.51,0q-29.55-.1-59.11-.27a17.55,17.55,0,0,0-2.64-6.54,45.27,45.27,0,0,0-5.4-6.26c-.52-.54-1.05-1.08-1.58-1.61a7.86,7.86,0,0,0-1.9-2.68l.07.06a16.23,16.23,0,0,0-3.69-2.86,11.9,11.9,0,0,0-4.48-1.44,20.69,20.69,0,0,0-5.72.22,23.79,23.79,0,0,0-5,1.63,30.1,30.1,0,0,0-8.52,5.92,34.13,34.13,0,0,0-6.81,8.94,21.25,21.25,0,0,0,.58,20.73,26,26,0,0,0,7.15,7.43,27.51,27.51,0,0,0,9.27,4.57,30.82,30.82,0,0,0,7.25,1,18.46,18.46,0,0,0,4.05-.43,19.68,19.68,0,0,0,8.66-4.22,25.13,25.13,0,0,0,6.53-9.12c.05-.11.09-.23.14-.35l4.49,0c23,.1,46,.31,69,.31a7.69,7.69,0,0,0,7.32-5.16,10.14,10.14,0,0,0,1.38-1.66l20.24-30.38,21.84-.77,19.79-.71,10.24-.39q-.06,15.72-.13,31.42c0,.23-.05.46-.06.7a6.33,6.33,0,0,0,.05,1.15v.88l1.76,1.69c1,1,2.09,1.91,3.14,2.86.35.31.68.62,1,.94h0l2.8,0c1.91,0,3.83.07,5.74.13l2.67.09,8.08.07q-.67,27.76-1.37,55.52a7.59,7.59,0,0,0,7.11,7.87h.36a7.55,7.55,0,0,0,7.51-7.11l0-.67q.68-27.75,1.37-55.51l24.07.16q-.5,26.85-1,53.71a8.3,8.3,0,0,0,.18,1.81q-.69,23.84-1.38,47.66a17.11,17.11,0,0,0-8,3.41c-6.58,5.3-10,13.8-10.16,22.14-.18,8,2.53,16.05,8.88,21.23a27.05,27.05,0,0,0,11,5.39,28,28,0,0,0,6.49.77,24.56,24.56,0,0,0,6.92-1A22.18,22.18,0,0,0,578,648.5a26.69,26.69,0,0,0,4.25-3.48,25.34,25.34,0,0,0,5.14-8.17,36.38,36.38,0,0,0,3-11.76,25.76,25.76,0,0,0-2.08-11.26,15.05,15.05,0,0,0-1-2,7.42,7.42,0,0,0-1.46-3.47l-.08-.1c-.11-.17-.23-.34-.35-.5a19.67,19.67,0,0,0-8.76-6.79,34.24,34.24,0,0,0-5-1.41c.46-17.05,1.06-34.11,1.49-51.17a7.21,7.21,0,0,0-.23-1.92q.5-25.23,1-50.47l28.82.19q-.55,24.52-1.1,49a7.68,7.68,0,0,0,2.74,8.64l33.45,24.93q-.63,14.57-1.25,29.13a7.58,7.58,0,0,0,7.14,7.84H644a7.58,7.58,0,0,0,7.5-7.15q.71-16.68,1.43-33.36a7.59,7.59,0,0,0-4.43-7.17q-16-11.9-31.9-23.79.51-24,1.08-48,12,.06,24,.15-.71,25.65-1.45,51.31a7.5,7.5,0,0,0,15,0q.76-25.62,1.45-51.22l18.61.12h.05a7.59,7.59,0,0,0,7.7-7.23,7.4,7.4,0,0,0-1-3.9v-.09c0-2.14.09-4.29.12-6.43.07-3.42.14-6.85.2-10.27,17.09.22,34.18.37,51.26.55h.12a9.5,9.5,0,0,0,2.22-.24,7.45,7.45,0,0,0,1.65.2h.14c10.68-.22,21.35-.65,32-1a7.62,7.62,0,0,0,7.12-5.58q8.31-15.36,16.59-30.75l29.28,0a7.5,7.5,0,0,0-.06-15l-32.24,0h-.13a7.44,7.44,0,0,0-7.73,3.58Q773.78,437,764.9,453.43c-9.12.3-18.23.63-27.35.82a7.45,7.45,0,0,0-1.64.22,5.78,5.78,0,0,0-1.19-.14c-17.35-.18-34.69-.33-52-.56l.42-21.69h1.51l62.85-.38c3.5,0,6.29-3,6.87-6.31a8.09,8.09,0,0,0,.7-1c5.74-10.29,11.39-20.63,17.08-30.94l56.39.37a17.68,17.68,0,0,0,1,2.32,18.21,18.21,0,0,0,8,7.79,40.6,40.6,0,0,0,5,2.13,21.34,21.34,0,0,0,7.15,1.3,18.65,18.65,0,0,0,3.14-.26,21.62,21.62,0,0,0,7.88-3.08c6.42-4.11,13.15-9.86,14.15-17.9.2-1.66.28-3.34.33-5a16.82,16.82,0,0,0-.08-2.84,25.89,25.89,0,0,0-1.49-4.67,13.08,13.08,0,0,0-1.15-2.38,8,8,0,0,0-1.47-3.84c-2.28-3.17-5.92-5.17-9.56-6.38a25.9,25.9,0,0,0-8.56-1.3,21.81,21.81,0,0,0-8.42,1.82,29.11,29.11,0,0,0-13.71,14c-.5,1.07-1,2.17-1.38,3.31-20.24-.13-40.49-.39-60.74-.39a8,8,0,0,0-5.48,2.16,6.87,6.87,0,0,0-2.48,2.54c-6.19,11.19-12.31,22.41-18.54,33.57l0,.05c-19.57.13-39.15.34-58.72.36q.18-9,.35-18c0-1.52.06-3,.08-4.54q25.63.3,51.27.69h.1a7.5,7.5,0,0,0,.33-15q-25.71-.35-51.41-.69.21-10.6.41-21.21l60.51-.19a7.72,7.72,0,0,0,5.38-2,7.48,7.48,0,0,0,2.4-5.22c0-.12,0-.24,0-.35,4.91-11.68,9.62-23.43,14.4-35.15,15.17,0,30.34-.2,45.51-.29l68.29-.42a7.73,7.73,0,0,0,5.39-2,7.47,7.47,0,0,0,2.44-5.19c.18-3.93-3.06-7.86-7.15-7.83l-39.62.24-40.5.24c-12.78.09-25.56.24-38.35.24a7.75,7.75,0,0,0-5.39,2A7.5,7.5,0,0,0,756,305a7.35,7.35,0,0,0-1.8,2.6c-4.86,11.85-9.61,23.75-14.56,35.55l-54.87.17c.12-7.74.25-15.47.49-23.2a7.64,7.64,0,0,0-6.13-7.77,7.88,7.88,0,0,0-5.15-1.7l-10.62,0H657q.06-26.53.15-53.09,15.24-12.45,30.41-25,22.66-.18,45.32-.3a17.4,17.4,0,0,0,2.63,5.53,27.64,27.64,0,0,0,8.33,7.52,23.79,23.79,0,0,0,10.9,3.55c.33,0,.65,0,1,0a18.39,18.39,0,0,0,9.45-2.6,32.09,32.09,0,0,0,13.88-19.22,21.77,21.77,0,0,0,.69-5.2,15.49,15.49,0,0,0-.52-4.5,15.76,15.76,0,0,0-2-4.38,6.55,6.55,0,0,0-1.29-2.39c-2.95-3.42-7.42-5.66-11.75-6.78a34.44,34.44,0,0,0-8.19-1.28,20,20,0,0,0-10.5,3.28,28,28,0,0,0-8.92,8.67,27.59,27.59,0,0,0-1.59,2.78q-24.5.15-49,.32a8.07,8.07,0,0,0-4.5,1.26,8,8,0,0,0-2.56,1.41Q662.05,234.12,645.2,248a7,7,0,0,0-2.46,4.43,9,9,0,0,0-.57,3.16q-.1,27.53-.15,55.05l-27,0c.05-18,.27-36,.39-54.07a7.5,7.5,0,0,0-15-.22c-.12,18.09-.34,36.18-.39,54.27l-18.9,0H571.06q-.12-26.26-.28-52.54c7.28-6.67,14.69-13.2,22-19.82l17.58-15.86h0a7.35,7.35,0,0,0,3.05-6c0-1.05,0-2.11-.06-3.17q-.46-27-.94-54a31.3,31.3,0,0,0,10.14-6.82,25.58,25.58,0,0,0,6.48-9.07,36.28,36.28,0,0,0,2.38-10.47,17.48,17.48,0,0,0-.42-6.64,28.26,28.26,0,0,0-1.48-3.7c-.72-1.45-1.41-2.93-2.24-4.33-.53-.89-1.07-1.77-1.64-2.64a12.29,12.29,0,0,0-4.2-4.22l-.82-.4a15,15,0,0,0-5.92-3.08,22.88,22.88,0,0,0-10.57,0,23.33,23.33,0,0,0-9.29,3.88,32.62,32.62,0,0,0-7.77,8.54,30.67,30.67,0,0,0-2.6,4.78,25,25,0,0,0-2,10.76,26,26,0,0,0,6,16.26,21.47,21.47,0,0,0,8.88,6.46l.08,0c.35,18.16.7,36.32.95,54.48l-16.08,14.5c-7.31,6.6-14.7,13.11-22,19.77a7.6,7.6,0,0,0-4.43,5.3,7.7,7.7,0,0,0-.14,4.46q.15,26.76.29,53.55l-25.61,0c-.43-16.67-.78-33.36-1.15-50v-.09q0-18.4,0-36.81,0-30.92.06-61.84a7.5,7.5,0,1,0-15,.3q0,10.72,0,21.44,0,37-.07,74a8.5,8.5,0,0,0-.05,1c0,.66,0,1.32.05,2v.3c.38,16.56.73,33.11,1.16,49.67l-13.64,0C497.75,310.42,494.54,314.38,494.74,318.3ZM322.18,342.7c-.06.45-.13.89-.2,1.33q-.42,1.68-1,3.33-.43,1.08-.93,2.13l-.72,1.21c-.74,1.06-1.49,2.09-2.32,3.08-.22.24-.44.46-.68.68a2.34,2.34,0,0,1-.31.24l-.11.07-.13.05-.17.05-.15,0h-.74q-1.26-.12-2.52-.33c-.41-.1-.82-.2-1.22-.33l.93.32a14.27,14.27,0,0,1-1.79-.67c-.4-.22-.8-.45-1.19-.69s-.89-.68-1.32-1-.86-.81-1.27-1.23-.65-.82-1-1.24c-.15-.24-.29-.49-.42-.74s-.29-.65-.42-1c-.19-.59-.35-1.19-.49-1.79a10.37,10.37,0,0,1-.15-1.1c0-.36,0-.7,0-1.05.06-.65.15-1.28.26-1.92.11-.45.23-.89.38-1.33s.27-.7.43-1,.53-.94.82-1.4c.18-.24.37-.48.56-.71s.46-.47.7-.7.48-.39.73-.57l.74-.43.77-.32a15.68,15.68,0,0,1,1.94-.47l-1,.2c.34-.05.69-.1,1-.13H312c.52.05,1.05.13,1.57.21l.61.16a6.36,6.36,0,0,0,3.19,1.75c.39.09.77.18,1.15.29.23.08.46.18.68.27l.2.12.09.07c.28.27.56.54.83.82l.75,1c.25.4.5.81.72,1.23.07.14.13.28.19.42s.11.41.17.62a.13.13,0,0,0,0,.06C322.19,342.35,322.19,342.52,322.18,342.7Zm5.57,140.57c-.1,1-.24,1.94-.42,2.91-.11.49-.25,1-.4,1.45s-.44,1.11-.69,1.66-.72,1.25-1.11,1.86c-.21.28-.43.56-.65.83l-.57.58a3.15,3.15,0,0,1-.29.22l-.29.17a7,7,0,0,1-.75.32c-.23.08-.46.14-.69.2l-.66.08h-.59c-.77-.08-1.52-.19-2.29-.33-.59-.14-1.17-.31-1.75-.49l-1-.4c-.54-.29-1.07-.6-1.59-.94s-1.18-.89-1.77-1.36-1.12-1.06-1.65-1.63c-.16-.2-.32-.41-.47-.62l-.33-.55c-.09-.19-.18-.39-.26-.6s-.13-.47-.19-.71-.08-.51-.11-.77,0-.5,0-.75.07-.53.1-.79.17-.63.26-.94.23-.56.35-.84c.34-.62.69-1.22,1.06-1.82s1-1.26,1.47-1.87c.65-.69,1.32-1.35,2-2s1.33-1.07,2-1.56c.53-.33,1.08-.65,1.63-.95l.95-.4.49-.13c2.38,2.23,4.64,4.6,6.84,7,.28.35.55.7.8,1.06.06.1.12.19.17.29l.17.38c0,.13.07.26.11.39s0,.21,0,.32S327.75,483,327.75,483.27Zm245.58,135c.4.48.77,1,1.13,1.45,0,.06.07.12.11.17s.11.26.16.39c.18.59.33,1.17.47,1.76s.15,1.08.2,1.62c0,.26,0,.53,0,.79s-.09.67-.14,1c-.27,1.21-.59,2.4-1,3.6-.38,1-.78,2.09-1.24,3.11-.24.45-.48.88-.74,1.31s-.61.8-.93,1.19c-.16.16-.32.33-.49.48l-.52.42-.37.22c-.49.22-1,.42-1.49.61s-1,.28-1.46.39-1,.15-1.44.2-.9,0-1.36,0c-.84-.08-1.66-.19-2.49-.33-.41-.1-.82-.21-1.23-.34s-1-.39-1.44-.6-.91-.52-1.36-.81c-.28-.21-.56-.42-.83-.64-.4-.38-.78-.76-1.15-1.16l-.47-.6c-.2-.33-.39-.66-.58-1l-.39-.93c-.19-.59-.35-1.19-.5-1.79s-.21-1.29-.28-1.94c0-.85,0-1.69,0-2.53s.19-1.63.32-2.45.35-1.43.56-2.14.49-1.24.76-1.85.69-1.22,1.07-1.82c.22-.31.45-.6.69-.89l.47-.47c.14-.11.28-.23.43-.33l.36-.21.44-.18.45-.12c.4-.07.8-.12,1.2-.17l1.48,0c1,0,1.91,0,2.88.06,1.33.11,2.64.25,4,.45.62.15,1.24.31,1.86.5q.43.16.87.36a8.15,8.15,0,0,0,1.75,3ZM842.62,387.82c.06-.64.14-1.28.25-1.92s.3-1.16.48-1.74c.33-.85.7-1.67,1.09-2.49.34-.62.7-1.23,1.07-1.83s.77-1,1.18-1.52c.61-.63,1.23-1.25,1.87-1.85.28-.23.57-.45.87-.67l.58-.35.51-.21c.45-.14.9-.26,1.36-.37s.92-.14,1.38-.19H854c.52.05,1,.12,1.55.21s.92.25,1.39.39l.4.16c.74,1.11,1.45,2.23,2.22,3.31.24.57.46,1.15.67,1.73,0,.78-.05,1.57-.09,2.35,0,.48-.11,1-.18,1.43-.07.28-.15.55-.22.82a.36.36,0,0,0,0,.09c-.33.43-.67.85-1,1.28-.7.75-1.42,1.46-2.17,2.16s-1.4,1.11-2.12,1.63c-.89.59-1.79,1.14-2.72,1.64l-.42.17c-.32.1-.63.18-1,.26l-.56.08h-.39l-.26,0c-.46-.11-.92-.23-1.37-.37-1.11-.41-2.2-.84-3.27-1.34-.29-.15-.58-.32-.87-.5l-.34-.26-.17-.17-.21-.28-.06-.1-.06-.16a2.41,2.41,0,0,0-.08-.25c0-.12,0-.23,0-.35S842.61,388.08,842.62,387.82ZM747.43,226.09l.12-.52-.09.44c0-.11.07-.2.11-.31l-.12.34c0,.13-.05.27-.08.4,0-.1,0-.21,0-.32a2.25,2.25,0,0,1-.08.24Zm-.18,1.08c0-.22.07-.44.11-.65s.18-.68.28-1,.27-.69.43-1c.39-.74.81-1.46,1.26-2.18.28-.38.57-.77.87-1.13s.89-.93,1.36-1.37l.76-.58c.65-.41,1.29-.79,2-1.14.25-.12.5-.22.76-.32l.7-.19.23,0h.55c.55.06,1.08.14,1.63.23,1.09.26,2.15.56,3.22.89.52.21,1,.42,1.54.65l.06,0a7.31,7.31,0,0,0,1.06,1.32c.21.2.4.4.6.6l.08.1,0,.25v.5c0,.24-.08.49-.11.73-.13.5-.26,1-.41,1.5-.35.94-.73,1.85-1.15,2.76s-1,1.68-1.48,2.49c-.33.42-.66.84-1,1.25s-.8.82-1.23,1.22-.87.68-1.33,1q-.33.21-.66.39l-.55.23-.53.16-.34,0h-.44c-.24,0-.49-.06-.74-.1s-.76-.2-1.14-.31l-.91-.38c-.59-.33-1.17-.68-1.75-1s-1.28-.95-1.9-1.46q-.45-.42-.87-.87a6.12,6.12,0,0,1-.39-.5c-.09-.16-.19-.31-.27-.47a3.73,3.73,0,0,1-.16-.35c0-.11-.07-.22-.1-.33l0-.38Zm-149.81-93q.07-.8.21-1.59c.05-.22.12-.45.19-.67.27-.7.58-1.37.91-2,.53-.94,1.08-1.84,1.66-2.74.4-.53.8-1,1.22-1.55s.93-.92,1.41-1.37l.63-.5c.29-.18.57-.34.86-.5s.69-.29,1-.42c.58-.17,1.16-.31,1.75-.44l1-.15a6.21,6.21,0,0,0,2.67,1.28l1.45.32a7.44,7.44,0,0,0,1.16.59c.73,1.21,1.42,2.45,2.07,3.71.27.57.55,1.14.81,1.72a1,1,0,0,0,0,.16q0,.09,0,.15,0,.45,0,.9c-.09,1.05-.22,2.07-.4,3.09s-.63,2.33-1,3.47c-.11.28-.22.56-.34.83l-.24.39c-.15.21-.3.41-.46.61-.91,1-1.85,2-2.84,2.91-.63.53-1.26,1-1.92,1.56-.47.29-.93.56-1.41.83l-.95.4-.13,0a7.73,7.73,0,0,0-2-.29c-.19,0-.38,0-.56,0s-.5-.12-.74-.2c-.56-.22-1.1-.44-1.65-.69l-.6-.35-.38-.29c-.13-.12-.24-.24-.36-.37-.52-.62-1-1.27-1.49-1.92-.23-.37-.44-.73-.65-1.1-.06-.13-.11-.27-.16-.4-.22-.74-.4-1.47-.56-2.21s-.19-1.43-.26-2.15C597.43,134.9,597.43,134.55,597.44,134.2ZM581.29,481.07l-39.54-.26c-10.73-.06-21.46-.19-32.19-.23q.17-38.74.32-77.49t.31-77.68h10.12q40.44.09,80.87.12l46.47.07a7.41,7.41,0,0,0,1.88.26h.32a7.28,7.28,0,0,0,1.54-.25l18.75,0-.06,4.27c-.52,26.94-1.1,53.88-1.56,80.83q-.62,35.44-1.37,70.88l-5.34,0Z"/><path class="cls-2" d="M638.8,346.88a7.21,7.21,0,0,0-3.75-1l-12.28.17q-39.94.57-79.9,1.14a7.63,7.63,0,0,0-5.62,2.6,7.54,7.54,0,0,0-4,6.54q-.08,7.38-.14,14.77-.35,38.58-.71,77.18a7.6,7.6,0,0,0,5,7.16,7.37,7.37,0,0,0,6.19,3.58c5.35,0,10.7-.08,16-.13l70.09-.58a8,8,0,0,0,4.88-1.72,7.58,7.58,0,0,0,7.46-7.47q.11-8.13.19-16.24.24-20.33.47-40.66c.15-12.83.45-25.68.45-38.51A7.59,7.59,0,0,0,638.8,346.88Z"/></g></g></svg>