<svg xmlns="http://www.w3.org/2000/svg" viewBox="0 0 1175.41 940.59"><defs><style>.cls-1{fill:#f2b8ff;}.cls-2{fill:#503d96;}.cls-3{fill:#513e96;}</style></defs><g id="Layer_2" data-name="Layer 2"><g id="Image_4" data-name="Image 4"><path class="cls-1" d="M1175,474.83a8.54,8.54,0,0,1,0-1.43,53.25,53.25,0,0,0-.79-10.62c-.31-1.6-.23-3.29-.45-4.91-.3-2-.77-4-1.14-6q-.45-2.48-.87-4.92c-.41-2.27-.75-4.54-1.24-6.8-.44-2-1.07-4-1.6-6-.69-2.64-1.26-5.3-2.07-7.88-1.12-3.65-2.36-7.29-3.64-10.88-1-2.76-2.17-5.47-3.2-8.21-1.71-4.51-3.76-8.87-5.9-13.19s-4.54-8.82-7-13.16c-3-5.39-6.4-10.52-9.91-15.58-1.64-2.37-3.33-4.73-5.1-7-2.51-3.3-5.11-6.55-7.73-9.78-1.14-1.38-2.36-2.7-3.6-4-2.9-3.07-5.75-6.2-8.77-9.14-3.62-3.53-7.29-7.07-11.15-10.32-5-4.22-10.11-8.3-15.51-12-4.63-3.18-9.24-6.33-14-9.22-3.9-2.31-7.9-4.42-11.88-6.6-3.11-1.68-6.32-3.1-9.47-4.67-3.57-1.76-7.43-3-11.1-4.55a145.1,145.1,0,0,0-14-4.93c-4.26-1.34-8.57-2.58-12.93-3.57-2.7-.63-5.38-1.43-8.1-2-1.89-.41-3.84-.53-5.75-.88s-4-.79-6-1.15c-1.2-.21-2.44-.33-3.65-.45-1.85-.16-3.7-.23-5.53-.43-2.19-.22-4.37-.58-6.58-.77a26.19,26.19,0,0,0-2.94,0c-.57,0-1.14,0-1.71,0a13.41,13.41,0,0,1-2.25-.3c-5.46-.1-10.8-.1-16.15-.1-.18.14-.34.38-.52.38-.58,0-1.16,0-1.73,0s-1.15,0-1.72,0c-2.66.12-5.32.22-8,.43a59.16,59.16,0,0,0-7.17.83c-.28.06-.57.1-.85.15-.18-.94-.37-1.89-.57-2.83-.73-3.31-1.76-6.56-2.62-9.84-1.13-4.31-2.05-8.65-3.38-12.86-1.82-6-3.85-11.9-5.93-17.77-1.63-4.5-3.55-8.91-5.24-13.38-2.79-7.36-6.13-14.49-9.61-21.55-3.58-7.29-7.43-14.38-11.4-21.47-4.94-8.78-10.44-17.17-16.17-25.42-2.69-3.88-5.44-7.72-8.32-11.47-4.11-5.4-8.36-10.7-12.63-16-1.85-2.26-3.84-4.41-5.87-6.53-4.73-5-9.38-10.11-14.31-14.92-5.9-5.76-11.9-11.53-18.2-16.83-8.19-6.89-16.5-13.56-25.32-19.59-7.55-5.2-15.08-10.34-22.93-15-6.37-3.77-12.9-7.22-19.39-10.76-5.07-2.75-10.31-5.08-15.44-7.63-5.84-2.88-12.13-4.84-18.13-7.42-7.43-3.18-15.12-5.63-22.84-8.06-7-2.18-14-4.2-21.11-5.83-4.4-1-8.78-2.32-13.22-3.24-3.08-.67-6.27-.87-9.38-1.43C648,4.71,644.76,4,641.48,3.38c-2-.33-4-.53-6-.73-3-.26-6-.36-9-.7-3.58-.36-7.13-1-10.74-1.25A45.19,45.19,0,0,0,611,.64c-.93,0-1.86,0-2.79,0a21,21,0,0,1-3.68-.5C595.58,0,586.86,0,578.15,0c-.3.23-.57.63-.87.63-.94,0-1.89,0-2.83,0s-1.87,0-2.8,0c-4.34.2-8.68.37-13,.7A97.46,97.46,0,0,0,547,2.72c-6,1.19-12.23,1.46-18.23,3.11-2.45.67-5.14.8-7.72,1.43-4.34,1-8.78,1.62-13.13,2.72-6.36,1.62-12.72,3.38-19,5.3-9.74,3-19.35,6.49-28.87,10.27a336.26,336.26,0,0,0-31.18,14.32C421,44,413.47,48.72,405.88,53.32c-4.68,2.86-9.29,5.9-13.82,9-3.82,2.58-7.56,5.3-11.24,8-5,3.78-9.91,7.63-14.78,11.5-1.79,1.4-3.52,2.89-5.14,4.44-9.21,9-18.66,17.73-27.54,27-6,6.27-11.1,13.29-16.73,19.86-6.17,7.22-11.47,15.07-16.81,22.9-4.24,6.23-8.28,12.66-11.93,19.25-2.07,3.75-4.09,7.53-6.09,11.33-.84-.1-1.69-.2-2.55-.27a35.56,35.56,0,0,0-3.58,0l-2.08,0a17.56,17.56,0,0,1-2.74-.37c-6.65-.13-13.15-.13-19.65-.13-.22.17-.42.47-.64.47-.71,0-1.41,0-2.11,0s-1.4,0-2.1,0c-3.24.15-6.47.27-9.68.51a75,75,0,0,0-8.73,1c-4.5.89-9.12,1.08-13.6,2.32-1.83.49-3.83.6-5.76,1.06-3.24.77-6.55,1.22-9.79,2-4.74,1.21-9.49,2.52-14.18,4-7.27,2.22-14.44,4.84-21.53,7.66a248.08,248.08,0,0,0-23.27,10.68c-5.85,3-11.44,6.6-17.1,10-3.49,2.13-6.92,4.4-10.31,6.73-2.84,1.93-5.63,4-8.38,6q-5.56,4.23-11,8.58a46.73,46.73,0,0,0-3.83,3.32c-6.88,6.67-13.92,13.22-20.54,20.14-4.45,4.67-8.29,9.91-12.49,14.8a197.06,197.06,0,0,0-12.53,17.09c-3.16,4.65-6.18,9.44-8.9,14.36-3.9,7.07-7.64,14.29-11.17,21.55-2.18,4.45-3.79,9.15-5.71,13.7a209.58,209.58,0,0,0-7.07,20.32A123.46,123.46,0,0,0,6.93,387c-.6,3.31-1.71,6.55-2.4,9.86-.5,2.38-.65,4.85-1,7.25-.45,2.76-1,5.51-1.46,8.28-.27,1.9,0,3.93-.57,5.7-.79,2.5.17,5.12-.91,7.54-.1.2,0,.48,0,.72-.17,6.46-.37,12.9-.49,19.33q-.12,5.56,0,11.13c.09,3.63.24,7.29.49,10.92.24,3.31.54,6.65,1,10,.55,4,1.29,7.87,1.95,11.8s1.22,8,2,12c.72,3.71,1.56,7.39,2.57,11,1.95,6.92,3.83,13.86,6.3,20.64,1.36,3.71,2.67,7.44,4.18,11.1,3.11,7.53,6.33,15.05,10.18,22.24,3.07,5.74,6.06,11.55,9.69,17,3,4.45,5.59,9.12,8.65,13.47s6.53,8.7,9.94,12.95c2.65,3.29,5.49,6.45,8.18,9.71a191.93,191.93,0,0,0,14.88,15.82c3.49,3.37,7,6.68,10.78,9.77,5.37,4.45,10.78,8.82,16.42,12.92,5,3.64,10.33,6.83,15.49,10.26s10.81,6.46,16.34,9.5c5.37,2.91,11,5.36,16.47,8,4.27,2,8.65,3.81,13.07,5.44,5.22,1.95,10.46,3.86,15.84,5.36,3.55,1,7.07,2.06,10.63,3H625l-.42-1.54c-3.44-12.37-6.31-25.29-9.08-38.25-1.34-6.3-2.51-12.71-3.72-19.09-2.21-11.65-3.88-23.59-5.62-35.49-.9-6.25-1.65-12.59-2.29-19-.7-6.89-1.21-13.82-1.79-20.7s-1.25-13.47-1.74-20.28c-.42-5.69-.68-11.43-.9-17.13-.22-6.24-.35-12.54-.44-18.78s-.07-12.75,0-19.13c.1-10.72.27-21.47.43-32.22h0v-4.67a4.09,4.09,0,0,1,1.61-2.05c13.1-7.88,26.23-15.68,39.33-23.52q20.48-12.24,40.95-24.49t41.19-24.63l42.32-25.31L806,328.8l27.14-16.24v-.21l27.3,16.33,41.19,24.64,42.32,25.31q20.6,12.31,41.19,24.63t40.94,24.49c13.11,7.84,26.23,15.64,39.33,23.52a4,4,0,0,1,1.61,2.05c0,1.56,0,3.11,0,4.67h0q.24,16.13.43,32.22.11,9.57,0,19.13c-.09,6.25-.22,12.54-.44,18.79-.22,5.69-.49,11.43-.9,17.13-.49,6.8-1.15,13.51-1.75,20.27s-1.08,13.82-1.78,20.7c-.64,6.37-1.39,12.71-2.29,19-1.74,11.9-3.42,23.85-5.62,35.49-1.21,6.38-2.38,12.79-3.72,19.09-1.84,8.57-3.73,17.1-5.78,25.49a196.06,196.06,0,0,0,17.93-8.69q5.25-2.84,10.36-5.89c2.51-1.48,5-3,7.41-4.67,3.21-2.24,6.33-4.61,9.5-7,3.8-2.78,7.35-5.84,11-8.85,6.54-5.42,12.35-11.57,18.26-17.6,3.3-3.37,6.25-7.09,9.21-10.79,4.84-6,9.26-12.32,13.49-18.78,2-2.94,3.77-6,5.46-9.1,2.58-4.75,5.12-9.52,7.45-14.38,2.07-4.28,4-8.63,5.63-13.09,1.36-3.7,2.82-7.37,4-11.13a151.19,151.19,0,0,0,4.47-15.62c.81-4,2-7.86,2.78-11.81.59-2.85.75-5.77,1.28-8.64.6-3.32.79-6.72,1.28-10,.38-2.68.14-5.32.32-8a3,3,0,0,1,.3-1c.11-8.43.11-16.76.11-25.08C1175.26,475.05,1175,475,1175,474.83Z"/><path class="cls-2" d="M887.28,570.14V567c0-3.83,0-7.66,0-11.49,0-2.16.06-4.33.09-6.49.13-7.89.26-16-.28-24l-.09-1.28a125,125,0,0,0-2.25-14.78c-.67-2.56-1.39-4.93-2.21-7.23-.6-1.41-1.27-2.8-2-4.14s-1.53-2.4-2.34-3.53c-1.55-1.93-3.26-3.86-5.07-5.72-1.78-1.7-3.6-3.31-5.45-4.79-1.66-1.23-3.33-2.36-5.1-3.45-1.55-.87-3.11-1.68-4.65-2.4-2-.8-3.75-1.47-5.44-2s-3.51-.89-5.46-1.27c-2.19-.34-4.32-.59-6.5-.77-1.46-.07-2.92-.1-4.32-.1-1.12,0-2.23,0-3.35.06-2.18.17-4.17.39-6.09.68-1,.21-2,.44-3.06.71-1.67.56-3.38,1.19-5.21,1.95-2.48,1.14-5,2.43-7.67,3.93-3.61,2.21-7.14,4.62-10.8,7.37-2.11,1.71-4.17,3.5-6.11,5.32a68.61,68.61,0,0,0-4.65,5.24c-1.4,1.92-2.61,3.73-3.69,5.53-1.15,2.17-2.22,4.4-3.15,6.6a111.24,111.24,0,0,0-4,12.13,80.29,80.29,0,0,0-1.46,9.52c-.28,4.7-.24,9.48-.21,14.1,0,3.86,0,7.77,0,11.55l0,3.52q0,4.26,0,8.5H778Z"/><path class="cls-2" d="M1054.66,640.68c2.2-11.64,3.88-23.59,5.62-35.49.9-6.25,1.65-12.59,2.29-19,.7-6.88,1.21-13.81,1.78-20.7s1.26-13.47,1.75-20.27c.41-5.7.68-11.44.9-17.13.22-6.25.35-12.54.44-18.79s.07-12.75,0-19.13q-.17-16.08-.43-32.22h0c0-1.56,0-3.11,0-4.67a4,4,0,0,0-1.61-2.05c-13.1-7.88-26.22-15.68-39.33-23.52q-20.46-12.24-40.94-24.49t-41.19-24.63l-42.32-25.31-41.19-24.64-27.3-16.33v.21L806,328.8l-41.19,24.64-42.32,25.31q-20.6,12.31-41.19,24.63t-40.95,24.49c-13.1,7.84-26.23,15.64-39.33,23.52a4.09,4.09,0,0,0-1.61,2.05v4.67h0c-.16,10.75-.33,21.5-.43,32.22q-.11,9.57,0,19.13c.09,6.24.22,12.54.44,18.78.22,5.7.48,11.44.9,17.13.49,6.81,1.15,13.52,1.74,20.28s1.09,13.81,1.79,20.7c.64,6.37,1.39,12.71,2.29,19,1.74,11.9,3.41,23.84,5.62,35.49,1.21,6.38,2.38,12.79,3.72,19.09,2.77,13,5.64,25.88,9.08,38.25l.42,1.54c2.59,9.36,5.14,18.8,8.21,27.66,2.65,7.65,5,15.69,7.72,23.16,2.77,7.66,5.81,15,8.85,22.28,2.36,5.65,4.89,11.1,7.29,16.7,2.62,6.09,5.38,11.93,8.24,17.58L830.56,938.77a9.51,9.51,0,0,1,1.16,1,2.26,2.26,0,0,0,1.4.85h.15a1.61,1.61,0,0,0,.76-.24h0l.14-.11.23-.16a4.3,4.3,0,0,0,.37-.37,6,6,0,0,1,.93-.76L1001,807.28c2.91-5.76,5.73-11.71,8.39-17.92,2.4-5.6,4.94-11,7.29-16.7,3.05-7.31,6.09-14.62,8.86-22.27,2.74-7.48,5.07-15.52,7.71-23.17,3.24-9.35,5.91-19.34,8.64-29.2,1.16-4.19,2.25-8.46,3.3-12.76,2-8.39,3.94-16.92,5.78-25.49C1052.28,653.47,1053.45,647.06,1054.66,640.68ZM720.57,768.4h-.43l-.23,0a.51.51,0,0,1-.38-.13c-.1-.1-.12-.26-.07-.5a1,1,0,0,0,0-.25V570.17h30.73c0-3.88,0-7.77,0-11.65,0-4.67.05-9.65,0-14.7a131.15,131.15,0,0,1,.62-16,83.2,83.2,0,0,1,3.59-16.45,95,95,0,0,1,6.43-15.72A68.31,68.31,0,0,1,771,481.12a104.94,104.94,0,0,1,14-12.38c11.46-8.42,21.68-13.66,32.14-16.47a72,72,0,0,1,18.55-2.19,102.58,102.58,0,0,1,18.58,1.75c11.77,2.13,23.16,7.64,33.85,16.4a78.51,78.51,0,0,1,11,11.27,53.91,53.91,0,0,1,9,15.87c6.38,17.63,6.09,36.46,5.8,54.68,0,2.45-.07,4.91-.09,7.35,0,3.3,0,6.61,0,9.92v2.83l30.46,0h1.13a.45.45,0,0,1,.06.41,1.23,1.23,0,0,0,0,.27v.1c0,64.7,0,131.59,0,197.43C870.49,768.4,794.27,768.4,720.57,768.4Z"/><path class="cls-1" d="M945.56,570.91v-.1a1.23,1.23,0,0,1,0-.27.45.45,0,0,0-.06-.41h-1.13l-30.46,0v-2.83c0-3.31,0-6.62,0-9.92,0-2.44.06-4.9.09-7.35.29-18.22.58-37-5.8-54.68a53.91,53.91,0,0,0-9-15.87,78.51,78.51,0,0,0-11-11.27c-10.69-8.76-22.08-14.27-33.85-16.4a102.58,102.58,0,0,0-18.58-1.75,72,72,0,0,0-18.55,2.19c-10.46,2.81-20.68,8.05-32.14,16.47a104.94,104.94,0,0,0-14,12.38,68.31,68.31,0,0,0-10.19,14.49,95,95,0,0,0-6.43,15.72,83.2,83.2,0,0,0-3.59,16.45,131.15,131.15,0,0,0-.62,16c.05,5.05,0,10,0,14.7,0,3.88,0,7.77,0,11.65H719.45V767.54a1,1,0,0,1,0,.25c-.05.24,0,.4.07.5a.51.51,0,0,0,.38.13l.23,0h.43c73.7,0,149.92,0,224.94-.06C945.56,702.5,945.56,635.61,945.56,570.91ZM836.61,700.08h-.39c-7.12,0-13.23-5.17-13.34-11.28v-.19c0-.79-.06-1.59-.07-2.39,0-.36,0-.72,0-1.08l-.14-6.16-.16-6c-.45-.17-.91-.36-1.37-.58l-.29-.15a17,17,0,0,1-1.65-.84l-.62-.35-.13-.07c-.37-.21-.74-.42-1.09-.65-.57-.35-1.19-.79-2-1.35-.4-.28-.8-.61-1.28-1a19.91,19.91,0,0,1-1.77-1.66l-.39-.39c-.2-.2-.4-.41-.59-.62-.45-.49-.83-.91-1.18-1.36-.22-.26-.42-.54-.62-.82s-.27-.39-.42-.58c-.37-.49-.68-1-1-1.57l-.05-.08-.07-.12a23.75,23.75,0,0,1-1.22-2.32l-.4-.94-.09-.23c-.24-.56-.43-1.15-.64-1.78l0-.12-.08-.25c-.12-.38-.22-.77-.31-1.16s-.13-.61-.18-.92l-.06-.33-.07-.35c-.06-.3-.12-.58-.16-.88s-.09-.7-.12-1-.05-.76-.06-1.14c0-.2,0-.39,0-.58s0-.39,0-.59c0-.66,0-1.33.05-2a1.25,1.25,0,0,0,.08-.45v-.09a.93.93,0,0,1,0-.33,1.06,1.06,0,0,0,0-.35,1.93,1.93,0,0,1,0-.24c0-.14.06-.29.1-.48s0-.26.08-.39,0-.22.06-.41l.06-.34c0-.13.07-.26.11-.4l0-.13c0-.22.1-.36.12-.5a13.43,13.43,0,0,1,.46-1.54,19.23,19.23,0,0,1,.85-2.13l.19-.4,0-.11a8.59,8.59,0,0,1,.44-.92c.42-.76.86-1.51,1.33-2.25.31-.49.67-1,1.06-1.5s1-1.23,1.49-1.78l.44-.46.14-.15c.29-.33.59-.64.91-.94.49-.44,1-.87,1.49-1.29l.24-.21.72-.6a5.37,5.37,0,0,1,.45-.35c.43-.3.88-.6,1.32-.89s.66-.43,1-.63.81-.48,1.23-.7l.39-.21c.54-.29,1.08-.59,1.65-.84.88-.41,1.81-.78,2.77-1.12s1.72-.56,2.56-.79c.56-.16,1.13-.29,1.69-.42l.4-.08.25,0a4.71,4.71,0,0,0,.52-.09l.33,0a3.37,3.37,0,0,0,.36-.06,7.43,7.43,0,0,1,1-.16l.64-.08a7.19,7.19,0,0,1,1-.11l.92-.05h.66l.11,0c.44,0,.87,0,1.28,0h1l.38,0h.67l.52.06.44,0,.2,0h.6l.17,0,.36,0,.34.07.53.08.39.05.45.07.68.14.49.11c.55.11,1.13.25,1.88.45a20.57,20.57,0,0,1,2,.63l.27.1.14,0,.24.08a9.94,9.94,0,0,1,1,.35l.47.2c.31.13.61.25.9.39l.4.19c.44.21.89.42,1.33.65.69.37,1.33.75,2,1.18a23.6,23.6,0,0,1,2.26,1.52c.55.41,1.1.87,1.61,1.31s.72.64,1.06,1l.22.19c.17.17.35.33.52.51.38.41.76.82,1.12,1.25s.5.59.74.89a23.69,23.69,0,0,1,1.43,2c.36.55.7,1.11,1,1.67a17.76,17.76,0,0,1,.85,1.68l.18.4c.11.21.2.43.29.64.18.46.37.92.53,1.38.07.23.14.45.2.67l.09.34.09.24,0,.19.06.19,0,.14c0,.22.1.44.14.66l0,.21.06.31.07.32.06.25,0,.23.06.28v.26a1.47,1.47,0,0,0,0,.36,5.85,5.85,0,0,1,.11,1.26v.27c0,.69.05,1.36.05,2,0,.41,0,.8,0,1.2a.79.79,0,0,0-.05.13c0,.14,0,.28,0,.41a3.13,3.13,0,0,1,0,.61c0,.18-.05.35-.07.55s-.06.5-.1.73-.06.31-.09.48-.06.43-.1.61-.13.48-.22.77-.13.49-.18.74a18.16,18.16,0,0,1-.59,1.81l-.07.17c-.12.32-.25.63-.39.95l-.19.46a18.08,18.08,0,0,1-.82,1.67c-.34.62-.71,1.23-1.09,1.83-.24.39-.5.78-.78,1.16a29.81,29.81,0,0,1-2,2.38,17.66,17.66,0,0,1-1.34,1.38l-.4.36-.1.09A25.08,25.08,0,0,1,856,668.9l-.22.17c-.45.33-.9.66-1.36,1l-.17.1-.11.07c-.36.25-.73.48-1.11.71a11.15,11.15,0,0,1-1.07.59c-.5.26-1,.51-1.51.75s-.83.39-1.27.58c.05,1.21.09,2.43.13,3.65v.4c.12,3.65.24,7.4.24,11.07v.15C849.54,694.49,843.75,699.87,836.61,700.08ZM776.82,561.67l0-3.52c0-3.78,0-7.69,0-11.55,0-4.62-.07-9.4.21-14.1a80.29,80.29,0,0,1,1.46-9.52,111.24,111.24,0,0,1,4-12.13c.93-2.2,2-4.43,3.15-6.6,1.08-1.8,2.29-3.61,3.69-5.53a68.61,68.61,0,0,1,4.65-5.24c1.94-1.82,4-3.61,6.11-5.32,3.66-2.75,7.19-5.16,10.8-7.37,2.68-1.5,5.19-2.79,7.67-3.93,1.83-.76,3.54-1.39,5.21-1.95,1-.27,2-.5,3.06-.71,1.92-.29,3.91-.51,6.09-.68,1.12,0,2.23-.06,3.35-.06,1.4,0,2.86,0,4.32.1,2.18.18,4.31.43,6.5.77,1.95.38,3.73.8,5.46,1.27s3.48,1.23,5.44,2c1.54.72,3.1,1.53,4.65,2.4,1.77,1.09,3.44,2.22,5.1,3.45,1.85,1.48,3.67,3.09,5.45,4.79,1.81,1.86,3.52,3.79,5.07,5.72.81,1.13,1.59,2.32,2.34,3.53s1.36,2.73,2,4.14c.82,2.3,1.54,4.67,2.21,7.23A125,125,0,0,1,887,523.67l.09,1.28c.54,8,.41,16.14.28,24,0,2.16-.07,4.33-.09,6.49,0,3.83,0,7.66,0,11.49v3.18l-109.33,0h-1.13Q776.8,565.93,776.82,561.67Z"/><path class="cls-3" d="M849.52,688.1V688c0-3.67-.12-7.42-.24-11.07v-.4c0-1.22-.08-2.44-.13-3.65.44-.19.86-.38,1.27-.58s1-.49,1.51-.75a11.15,11.15,0,0,0,1.07-.59c.38-.23.75-.46,1.11-.71l.11-.07.17-.1c.46-.3.91-.63,1.36-1l.22-.17a25.08,25.08,0,0,0,2.15-1.78l.1-.09.4-.36a17.66,17.66,0,0,0,1.34-1.38,29.81,29.81,0,0,0,2-2.38c.28-.38.54-.77.78-1.16.38-.6.75-1.21,1.09-1.83a18.08,18.08,0,0,0,.82-1.67l.19-.46c.14-.32.27-.63.39-.95l.07-.17a18.16,18.16,0,0,0,.59-1.81c0-.25.12-.49.18-.74s.16-.53.22-.77.07-.38.1-.61,0-.33.09-.48.07-.47.1-.73.05-.37.07-.55a3.13,3.13,0,0,0,0-.61c0-.13,0-.27,0-.41a.79.79,0,0,1,.05-.13c0-.4,0-.79,0-1.2,0-.67,0-1.34-.05-2v-.27a5.85,5.85,0,0,0-.11-1.26,1.47,1.47,0,0,1,0-.36v-.26l-.06-.28,0-.23-.06-.25-.07-.32-.06-.31,0-.21c0-.22-.09-.44-.14-.66l0-.14-.06-.19,0-.19-.09-.24-.09-.34c-.06-.22-.13-.44-.2-.67-.16-.46-.35-.92-.53-1.38-.09-.21-.18-.43-.29-.64l-.18-.4a17.76,17.76,0,0,0-.85-1.68c-.32-.56-.66-1.12-1-1.67a23.69,23.69,0,0,0-1.43-2c-.24-.3-.48-.61-.74-.89s-.74-.84-1.12-1.25c-.17-.18-.35-.34-.52-.51l-.22-.19c-.34-.33-.7-.66-1.06-1s-1.06-.9-1.61-1.31a23.6,23.6,0,0,0-2.26-1.52c-.7-.43-1.34-.81-2-1.18-.44-.23-.89-.44-1.33-.65l-.4-.19c-.29-.14-.59-.26-.9-.39l-.47-.2a9.94,9.94,0,0,0-1-.35l-.24-.08-.14,0-.27-.1a20.57,20.57,0,0,0-2-.63c-.75-.2-1.33-.34-1.88-.45l-.49-.11-.68-.14-.45-.07-.39-.05-.53-.08-.34-.07-.36,0-.17,0H839l-.2,0-.44,0-.52-.06h-.67l-.38,0h-1c-.41,0-.84,0-1.28,0l-.11,0h-.66l-.92.05a7.19,7.19,0,0,0-1,.11l-.64.08a7.43,7.43,0,0,0-1,.16,3.37,3.37,0,0,1-.36.06l-.33,0a4.71,4.71,0,0,1-.52.09l-.25,0-.4.08c-.56.13-1.13.26-1.69.42-.84.23-1.66.48-2.56.79s-1.89.71-2.77,1.12c-.57.25-1.11.55-1.65.84l-.39.21c-.42.22-.83.46-1.23.7s-.67.41-1,.63-.89.59-1.32.89a5.37,5.37,0,0,0-.45.35l-.72.6-.24.21c-.51.42-1,.85-1.49,1.29-.32.3-.62.61-.91.94l-.14.15-.44.46c-.53.55-1,1.17-1.49,1.78s-.75,1-1.06,1.5c-.47.74-.91,1.49-1.33,2.25a8.59,8.59,0,0,0-.44.92l0,.11-.19.4a19.23,19.23,0,0,0-.85,2.13,13.43,13.43,0,0,0-.46,1.54c0,.14-.07.28-.12.5l0,.13c0,.14-.08.27-.11.4l-.06.34c0,.19,0,.3-.06.41s-.05.27-.08.39-.08.34-.1.48a1.93,1.93,0,0,0,0,.24,1.06,1.06,0,0,1,0,.35.93.93,0,0,0,0,.33v.09a1.25,1.25,0,0,1-.08.45c0,.68,0,1.35-.05,2,0,.2,0,.39,0,.59s0,.38,0,.58c0,.38,0,.76.06,1.14s.06.69.12,1,.1.58.16.88l.07.35.06.33c.05.31.11.62.18.92s.19.78.31,1.16l.08.25,0,.12c.21.63.4,1.22.64,1.78l.09.23.4.94a23.75,23.75,0,0,0,1.22,2.32l.07.12.05.08c.35.57.66,1.08,1,1.57.15.19.29.39.42.58s.4.56.62.82c.35.45.73.87,1.18,1.36.19.21.39.42.59.62l.39.39a19.91,19.91,0,0,0,1.77,1.66c.48.41.88.74,1.28,1,.78.56,1.4,1,2,1.35.35.23.72.44,1.09.65l.13.07.62.35a17,17,0,0,0,1.65.84l.29.15c.46.22.92.41,1.37.58l.16,6,.14,6.16c0,.36,0,.72,0,1.08,0,.8,0,1.6.07,2.39v.19c.11,6.11,6.22,11.28,13.34,11.28h.39C843.75,699.87,849.54,694.49,849.52,688.1Z"/></g></g></svg>