<svg xmlns="http://www.w3.org/2000/svg" viewBox="0 0 1175.41 966.24"><defs><style>.cls-1{fill:#f2b8ff;}.cls-2{fill:#513e96;}</style></defs><g id="Layer_2" data-name="Layer 2"><g id="Vector_layer" data-name="Vector layer"><path class="cls-1" d="M572,966.23c-1.82-.09-3.63-.22-5.45-.38-3.54-.3-7.15-.14-10.63-.76-2.15-.44-4.24-.34-6.37-.6-2.58-.3-5.13-.9-7.75-1.29-3.45-.5-6.93-.77-10.37-1.36-4.08-.73-8.13-1.73-12.17-2.62l-10.9-2.49c-6.59-1.49-13.09-3.51-19.62-5.34-7.22-2-14.25-4.57-21.24-7.19-5.94-2.18-11.8-4.57-17.54-7.29-7.39-3.51-14.88-6.79-22.07-10.7-7.42-4.08-14.88-8-21.91-12.73s-14.08-8.88-20.77-13.75c-7.56-5.5-14.82-11.37-22-17.34-5-4.14-9.78-8.58-14.45-13.09a256.44,256.44,0,0,1-19.95-21.21c-3.62-4.37-7.43-8.61-11-13-4.58-5.7-9.15-11.4-13.33-17.37s-7.62-12.09-11.59-18.06c-4.88-7.29-8.89-15.08-13-22.77-5.16-9.64-9.48-19.72-13.65-29.82-2-4.91-3.78-9.91-5.6-14.89-3.32-9.07-5.83-18.39-8.45-27.67-1.36-4.87-2.49-9.81-3.45-14.78-1.06-5.37-1.82-10.77-2.68-16.14s-1.89-10.5-2.62-15.81c-.63-4.44-1-8.91-1.36-13.35-.33-4.88-.53-9.78-.66-14.65s-.1-9.94,0-14.92c.16-8.61.43-17.26.66-25.91,0-.34-.13-.7,0-1,1.46-3.24.17-6.76,1.22-10.1.73-2.39.4-5.11.77-7.66.56-3.71,1.35-7.39,1.95-11.1.53-3.21.73-6.53,1.39-9.71.93-4.44,2.42-8.78,3.22-13.23a169.43,169.43,0,0,1,5.13-19.75,284.09,284.09,0,0,1,9.49-27.24c2.58-6.1,4.73-12.39,7.65-18.36,4.74-9.74,9.74-19.42,15-28.9,3.65-6.59,7.69-13,11.93-19.25,5.34-7.83,10.64-15.68,16.81-22.91,5.63-6.56,10.77-13.59,16.73-19.85,8.88-9.28,18.33-18.06,27.54-27a66.27,66.27,0,0,1,5.14-4.44q7.31-5.82,14.78-11.5c3.68-2.75,7.42-5.47,11.24-8.05,4.53-3.12,9.14-6.17,13.82-9,7.59-4.6,15.07-9.38,22.93-13.45A333.67,333.67,0,0,1,460,292.11c9.52-3.78,19.13-7.29,28.87-10.27,6.3-1.93,12.66-3.68,19-5.31,4.35-1.09,8.79-1.69,13.13-2.71,2.58-.63,5.27-.77,7.72-1.43,6-1.66,12.2-1.92,18.23-3.11a95.47,95.47,0,0,1,11.7-1.36c4.31-.33,8.65-.5,13-.7.93,0,1.86,0,2.8,0s1.89,0,2.83,0c.3,0,.57-.4.87-.63,8.71,0,17.43,0,26.34.16a21,21,0,0,0,3.68.5c.93,0,1.86,0,2.79,0,1.6,0,3.21-.07,4.8.05,3.61.3,7.16.9,10.74,1.26,3,.33,6,.44,9,.7,2,.2,4,.4,6,.73,3.28.59,6.53,1.33,9.81,1.89,3.11.56,6.3.76,9.38,1.42,4.44.93,8.82,2.22,13.22,3.25,7.13,1.62,14.15,3.64,21.11,5.83a240.62,240.62,0,0,1,22.84,8.06c6,2.58,12.29,4.54,18.13,7.42,5.13,2.55,10.37,4.87,15.44,7.62,6.49,3.55,13,7,19.39,10.77,7.85,4.71,15.38,9.85,22.93,15.05,8.82,6,17.13,12.7,25.32,19.59,6.3,5.3,12.3,11.07,18.2,16.83,4.93,4.81,9.58,9.91,14.31,14.92,2,2.12,4,4.27,5.87,6.53,4.27,5.27,8.52,10.57,12.63,16,2.88,3.75,5.63,7.59,8.32,11.47,5.73,8.25,11.23,16.64,16.17,25.42,4,7.09,7.82,14.18,11.4,21.47,3.48,7.06,6.82,14.19,9.61,21.55,1.69,4.47,3.61,8.87,5.24,13.38,2.08,5.87,4.11,11.8,5.93,17.77,1.33,4.21,2.25,8.55,3.38,12.86.86,3.28,1.89,6.52,2.62,9.84.79,3.68,1.36,7.39,2,11.1.46,2.66.93,5.34,1.42,8,.6,3.28,1.36,6.53,1.86,9.81.37,2.65.23,5.4.73,8a86.73,86.73,0,0,1,1.29,17.34,15,15,0,0,0,0,2.32c0,.2.4.36.64.52,0,13.59,0,27.18-.17,40.93a5,5,0,0,0-.5,1.7c-.3,4.3.1,8.61-.53,13-.79,5.43-1.09,11-2.09,16.4-.86,4.68-1.12,9.45-2.09,14.09-1.32,6.46-3.21,12.82-4.53,19.28-1.79,8.69-4.58,17.08-7.3,25.49-2,6.13-4.37,12.13-6.59,18.16-2.72,7.3-5.8,14.39-9.18,21.38-3.81,7.92-8,15.71-12.16,23.46-2.75,5.08-5.74,10-8.92,14.85-6.89,10.54-14.12,20.85-22,30.66-4.84,6-9.64,12.09-15,17.59-9.64,9.85-19.12,19.89-29.8,28.74-5.89,4.91-11.7,9.91-17.89,14.45-5.17,3.81-10.27,7.69-15.51,11.33-3.91,2.72-8,5.21-12.1,7.63-5.57,3.31-11.2,6.53-16.9,9.61a306.09,306.09,0,0,1-33.48,15.94c-4.47,1.75-8.84,3.81-13.42,5.23-8,2.49-15.91,5.41-24,7.59-7.59,2.06-15.18,3.91-22.81,5.74-3,.69-6.06,1.42-9.14,1.95-4.21.76-8.49,1.43-12.76,2-2.42.37-4.91.3-7.33.73a59.7,59.7,0,0,1-11.4,1.29c-.53,0-1.19-.2-1.62,0a10,10,0,0,1-4.92.63,19.86,19.86,0,0,0-2.44,0c-1.18.09-2.37.25-3.55.38Z"/><path class="cls-1" d="M195.13,966.23c-3.56-.93-7.08-2-10.63-3-5.38-1.51-10.62-3.41-15.84-5.36-4.42-1.63-8.8-3.42-13.07-5.44-5.51-2.62-11.1-5.07-16.47-8-5.53-3.05-11.1-6-16.34-9.5s-10.5-6.62-15.49-10.26c-5.64-4.1-11.05-8.47-16.42-12.92-3.73-3.09-7.29-6.41-10.78-9.77a191.93,191.93,0,0,1-14.88-15.82c-2.69-3.26-5.53-6.42-8.18-9.71-3.41-4.25-6.82-8.51-9.94-13s-5.68-9-8.65-13.48c-3.63-5.43-6.62-11.25-9.69-17a244,244,0,0,1-10.18-22.25c-1.51-3.65-2.82-7.39-4.18-11.09C11.92,793,10,786,8.09,779.09c-1-3.64-1.85-7.32-2.57-11-.79-4-1.36-8-2-12s-1.4-7.83-1.95-11.79c-.47-3.31-.77-6.65-1-10C.3,730.64.15,727,.06,723.34s-.08-7.41,0-11.12c.12-6.43.32-12.88.49-19.33,0-.25-.1-.52,0-.72,1.08-2.42.12-5,.91-7.54.54-1.77.3-3.8.57-5.7.42-2.77,1-5.52,1.46-8.29.39-2.39.54-4.87,1-7.24.69-3.31,1.8-6.55,2.4-9.86a124.12,124.12,0,0,1,3.83-14.74,211.46,211.46,0,0,1,7.07-20.32c1.92-4.54,3.53-9.24,5.71-13.69,3.53-7.27,7.27-14.48,11.17-21.55,2.72-4.92,5.74-9.72,8.9-14.37a196.91,196.91,0,0,1,12.53-17.08c4.2-4.89,8-10.13,12.49-14.8,6.62-6.92,13.66-13.47,20.54-20.15A48.62,48.62,0,0,1,93,513.53q5.44-4.33,11-8.58c2.75-2.05,5.54-4.08,8.38-6,3.39-2.33,6.82-4.6,10.31-6.73,5.66-3.43,11.25-7,17.1-10a248.08,248.08,0,0,1,23.27-10.68c7.09-2.82,14.26-5.44,21.53-7.67,4.69-1.43,9.44-2.74,14.18-3.95,3.24-.82,6.55-1.26,9.79-2,1.93-.47,3.93-.57,5.76-1.06,4.48-1.24,9.1-1.43,13.6-2.32a75,75,0,0,1,8.73-1c3.21-.25,6.44-.37,9.68-.51.7,0,1.4,0,2.1,0s1.4,0,2.11,0c.22,0,.42-.3.64-.47,6.5,0,13,0,19.65.12a16.5,16.5,0,0,0,2.74.38l2.08,0a32.84,32.84,0,0,1,3.58,0c2.7.22,5.34.67,8,.94,2.23.25,4.48.32,6.73.52,1.48.14,3,.29,4.44.54,2.45.44,4.88,1,7.32,1.41s4.7.57,7,1.06c3.31.69,6.58,1.66,9.86,2.43,5.32,1.21,10.56,2.72,15.75,4.34,5.76,1.81,11.49,3.64,17,6,4.47,1.93,9.17,3.39,13.52,5.54,3.83,1.9,7.74,3.63,11.52,5.69,4.84,2.64,9.72,5.21,14.46,8,5.86,3.51,11.47,7.34,17.11,11.22,6.57,4.5,12.77,9.47,18.88,14.61,4.7,4,9.17,8.26,13.57,12.56,3.68,3.58,7.14,7.39,10.68,11.12,1.51,1.58,3,3.19,4.37,4.87,3.19,3.93,6.36,7.89,9.42,11.91,2.16,2.8,4.21,5.66,6.21,8.56,4.27,6.15,8.38,12.4,12.06,19,3,5.29,5.83,10.58,8.5,16,2.6,5.27,5.1,10.58,7.17,16.07,1.26,3.34,2.7,6.63,3.91,10,1.56,4.37,3.06,8.8,4.42,13.25,1,3.14,1.68,6.37,2.52,9.59.65,2.44,1.41,4.87,2,7.34.59,2.75,1,5.51,1.5,8.28.35,2,.69,4,1.07,6,.44,2.45,1,4.87,1.38,7.32.28,2,.17,4,.55,6a65.11,65.11,0,0,1,1,12.93,10,10,0,0,0,0,1.73c0,.15.3.27.47.4,0,10.13,0,20.27-.12,30.52a3.68,3.68,0,0,0-.37,1.27c-.22,3.21.07,6.42-.39,9.68-.6,4.06-.82,8.19-1.56,12.24-.64,3.49-.84,7-1.56,10.5-1,4.83-2.4,9.57-3.39,14.39a179.15,179.15,0,0,1-5.44,19c-1.48,4.57-3.26,9.05-4.91,13.55-2,5.43-4.33,10.72-6.85,15.94-2.85,5.91-5.94,11.72-9.07,17.5-2.06,3.78-4.28,7.49-6.65,11.08-5.14,7.86-10.53,15.54-16.42,22.86a171.46,171.46,0,0,1-11.22,13.13c-7.19,7.34-14.26,14.83-22.22,21.43-4.4,3.66-8.73,7.39-13.35,10.78-3.86,2.84-7.66,5.73-11.57,8.45-2.92,2-5.95,3.88-9,5.69-4.15,2.46-8.35,4.86-12.61,7.16a227.1,227.1,0,0,1-25,11.89c-3.34,1.31-6.6,2.84-10,3.91-6,1.85-11.87,4-17.93,5.66q-2.72.74-5.45,1.43Z"/><path class="cls-1" d="M927.17,966.24c-.85-.11-1.7-.22-2.55-.37-2.5-.45-5-1.06-7.45-1.6l-6.68-1.53c-4-.91-8-2.15-12-3.27-4.43-1.23-8.73-2.8-13-4.4-3.63-1.34-7.23-2.81-10.74-4.47-4.53-2.15-9.12-4.16-13.52-6.56-4.55-2.5-9.12-4.91-13.43-7.8s-8.63-5.44-12.73-8.42c-4.63-3.37-9.07-7-13.48-10.62-3.07-2.54-6-5.27-8.86-8a158,158,0,0,1-12.22-13c-2.21-2.68-4.55-5.28-6.72-8-2.81-3.5-5.61-7-8.16-10.64s-4.68-7.41-7.11-11.07a160.57,160.57,0,0,1-8-14,199.63,199.63,0,0,1-8.37-18.28c-1.24-3-2.31-6.07-3.43-9.11-2-5.57-3.57-11.27-5.18-17-.83-3-1.52-6-2.11-9.06-.65-3.29-1.12-6.59-1.65-9.88s-1.15-6.44-1.6-9.69c-.38-2.72-.63-5.47-.83-8.18-.21-3-.33-6-.41-9s-.06-6.09,0-9.14c.1-5.28.27-10.58.41-15.88,0-.2-.08-.42,0-.59.89-2,.1-4.14.75-6.19.45-1.46.24-3.13.47-4.69.34-2.28.83-4.53,1.19-6.8.33-2,.45-4,.86-6,.57-2.72,1.48-5.38,2-8.1A102,102,0,0,1,755.73,693c1.73-5.62,3.52-11.25,5.81-16.69,1.59-3.74,2.9-7.59,4.69-11.25,2.91-6,6-11.9,9.18-17.7,2.23-4,4.71-8,7.31-11.81a161.9,161.9,0,0,1,10.3-14c3.45-4,6.6-8.32,10.25-12.16,5.44-5.68,11.23-11.07,16.88-16.55a40.81,40.81,0,0,1,3.14-2.72c3-2.37,6-4.73,9.06-7,2.25-1.68,4.55-3.34,6.88-4.93,2.78-1.91,5.61-3.78,8.47-5.52,4.65-2.82,9.24-5.75,14-8.25a206,206,0,0,1,19.11-8.77c5.83-2.32,11.72-4.47,17.69-6.3,3.86-1.17,7.76-2.25,11.66-3.25,2.66-.66,5.38-1,8-1.66,1.58-.39,3.23-.47,4.73-.87,3.68-1,7.47-1.18,11.17-1.91a59.16,59.16,0,0,1,7.17-.83c2.64-.21,5.3-.31,8-.43.57,0,1.14,0,1.72,0s1.15,0,1.73,0c.18,0,.34-.25.52-.39,5.35,0,10.69,0,16.15.11a13.41,13.41,0,0,0,2.25.3c.57,0,1.14,0,1.71,0a28.8,28.8,0,0,1,2.94,0c2.21.18,4.39.55,6.58.77,1.83.2,3.68.27,5.53.43,1.21.12,2.45.24,3.65.44,2,.37,4,.82,6,1.16s3.86.47,5.75.88c2.72.56,5.4,1.36,8.1,2,4.36,1,8.67,2.24,12.93,3.58a145.1,145.1,0,0,1,14,4.93c3.67,1.59,7.53,2.79,11.1,4.55,3.15,1.57,6.36,3,9.47,4.67,4,2.18,8,4.29,11.88,6.6,4.81,2.89,9.42,6,14,9.22,5.4,3.7,10.5,7.78,15.51,12,3.86,3.25,7.53,6.79,11.15,10.32,3,2.94,5.87,6.07,8.77,9.13,1.24,1.3,2.46,2.63,3.6,4,2.62,3.22,5.22,6.47,7.73,9.78,1.77,2.3,3.46,4.66,5.1,7,3.51,5.06,6.88,10.19,9.91,15.57,2.44,4.35,4.79,8.7,7,13.16s4.19,8.69,5.9,13.2c1,2.74,2.21,5.45,3.2,8.21,1.28,3.59,2.52,7.22,3.64,10.88.81,2.58,1.38,5.24,2.07,7.88.53,2,1.16,4,1.6,6,.49,2.25.83,4.53,1.24,6.8q.42,2.44.87,4.92c.37,2,.84,4,1.14,6,.22,1.62.14,3.31.45,4.91A53.25,53.25,0,0,1,1175,740a8.4,8.4,0,0,0,0,1.42c0,.12.24.23.39.33,0,8.32,0,16.65-.11,25.08a3,3,0,0,0-.3,1c-.18,2.64.06,5.28-.32,8-.49,3.33-.68,6.72-1.28,10.05-.53,2.87-.69,5.79-1.28,8.64-.82,3.95-2,7.85-2.78,11.81a151.19,151.19,0,0,1-4.47,15.62c-1.22,3.75-2.68,7.43-4,11.12-1.67,4.47-3.56,8.82-5.63,13.1-2.33,4.86-4.87,9.63-7.45,14.38q-2.54,4.66-5.46,9.1c-4.23,6.46-8.65,12.77-13.49,18.78-3,3.7-5.91,7.41-9.21,10.79-5.91,6-11.72,12.18-18.26,17.6-3.62,3-7.17,6.07-11,8.85-3.17,2.34-6.29,4.71-9.5,7-2.4,1.66-4.9,3.18-7.41,4.67q-5.12,3-10.36,5.89a189.63,189.63,0,0,1-20.51,9.77c-2.74,1.07-5.42,2.33-8.22,3.2-4.92,1.53-9.75,3.31-14.72,4.65-4.65,1.26-9.3,2.4-14,3.52-1.87.42-3.72.87-5.61,1.2-1.54.27-3.09.53-4.66.77Z"/><path class="cls-1" d="M207.15,966.24V583.88H985.08c.52,0,1,0,1.48,0,1.6-.16,2.19.13,1.89.91a1.64,1.64,0,0,0,0,.73q0,190.32-.19,380.72Z"/></g><g id="Image_8" data-name="Image 8"><path class="cls-2" d="M479.83,313c-4.94-.74-9.87-1.59-14.78-2.5-3-.55-6-1.13-9-1.86-1.93-.48-3.83-1-5.73-1.61A107.5,107.5,0,0,1,419,295.44a76.09,76.09,0,0,1-20.64-17.15,68.32,68.32,0,0,1-4.76-6c-1.76-2.53-3.43-5.1-5-7.74s-2.95-5.53-4.32-8.35a71.69,71.69,0,0,1-2.95-7.07c-1-2.82-2.11-5.66-2.91-8.56a143.74,143.74,0,0,1-4.86-33.26c-.27-7.38.05-15.25,3.83-21.8a15.07,15.07,0,0,1,11.3-7.46c4.51-.48,8.71,1.21,12.3,3.83,2,1.46,3.94,3,5.91,4.51,1,.76,2,1.49,3,2.2,2.32,1.48,4.68,2.86,7.11,4.13.89.4,1.78.78,2.69,1.14,1.12.34,2.25.66,3.39.93.92.14,1.84.26,2.76.37,1.3.06,2.6.07,3.91,0,2-.19,4-.48,5.94-.84,3.83-.9,7.58-2,11.31-3.26q7-2.54,13.92-5.46c4.8-2,9.57-4.11,14.46-5.89a153.27,153.27,0,0,1,15.45-4.94,129.8,129.8,0,0,1,16.12-3c11.12-1.33,22.43-1.3,33.17,2.2s20.72,9.33,29.68,16.17a101.38,101.38,0,0,1,9.44,8.15,18.2,18.2,0,0,1-.29-2.84c0-1.21.06-2.44.11-3.66.14-2.88.38-5.77.73-8.62a146.81,146.81,0,0,1,2.91-16.39A162.14,162.14,0,0,1,593.47,137a143.56,143.56,0,0,1,8-15.13,125.09,125.09,0,0,1,9.89-13.76,122.64,122.64,0,0,1,24.95-22.59,142.67,142.67,0,0,1,30.55-15.85,186.13,186.13,0,0,1,33-8.8C710.44,59,721.19,58,731.93,57.05c10.33-.94,20.75-1.8,31-3.74l3-.57a205.66,205.66,0,0,0,22.24-6c5.6-2.07,11-4.42,16.4-7a184.7,184.7,0,0,0,16.2-9.63c3-2.11,5.93-4.33,8.75-6.7a103.25,103.25,0,0,0,7.41-7.53c1.92-2.19,3.81-4.4,5.63-6.68,1-1.29,2-2.62,3-3.86a14.52,14.52,0,0,1,7.1-4.85,12.64,12.64,0,0,1,9.66,1.28c5.69,3.34,6.7,10,7.26,15.94.33,3.47.53,7,.76,10.42.73,10.57,1.64,21.12,2.21,31.71.55,10.32.67,20.66.9,31,.24,10.61.5,21.19.12,31.8a301.37,301.37,0,0,1-3.14,32.57c-1.17,8.1-2.67,16.19-4.6,24.13s-4.25,15.8-6.94,23.56a143.92,143.92,0,0,1-6,14.86,79.14,79.14,0,0,1-4.23,7.79,60.94,60.94,0,0,1-5.11,7.24c-2,2.41-4.14,4.76-6.42,7s-4.46,4-6.76,5.92a143.54,143.54,0,0,1-13.67,9.81,247.37,247.37,0,0,1-28.26,16C778.82,276,769,280.17,759,283.79a152.56,152.56,0,0,1-18.59,5.65A122.73,122.73,0,0,1,722,291.78l.37,0c-4.84.32-9.65.86-14.47,1.43A129.21,129.21,0,0,1,693,294.36h-.68c-5.1-.06-10.19-.72-15.26-1.19s-10.15-1-15.21-1.54c-6.38-.72-12.76-1.55-19.12-2.4-5.63-.75-11.22-1.67-16.88-2.12a62.88,62.88,0,0,0-6.29-.07c-1,.1-2,.24-3,.41-.8.19-1.59.39-2.38.63s-1.31.54-1.95.84l-.61.33a13.09,13.09,0,0,1-2,.88l-.4.24-.39.32c-.6.54-1.19,1.09-1.81,1.59q-.27.21-.54.39c-.12.27-.25.54-.36.82a10.87,10.87,0,0,1-2,3.23A12.34,12.34,0,0,1,592.7,305h-.28a12.07,12.07,0,0,1-8.4-3.72,12.3,12.3,0,0,1-3.3-8.57c0-.16,0-.31,0-.46-.61-.52-1.18-1.06-1.77-1.6s-1-.82-1.52-1.21c-.39-.23-.78-.46-1.18-.67-.57-.27-1.15-.52-1.73-.74l-1.25-.36-.67-.08c-.21,0-.42,0-.63,0s-.68.08-1,.14-.47.12-.7.19c-.8.31-1.59.67-2.37,1-3.81,2-7.52,4.14-11.24,6.29a129.35,129.35,0,0,1-14.42,7.22c-5.22,2.19-10.53,4.18-15.92,5.89a122.27,122.27,0,0,1-15,3.51,128.53,128.53,0,0,1-16,2c-1.07.07-2.13.09-3.2.09A82.56,82.56,0,0,1,479.83,313ZM718.36,268l3-.22h.06l-.32,0,.37,0,.16,0ZM602.08,192l.12.22c-.05-.15-.1-.3-.16-.46l-.49-1C601.75,191.17,601.92,191.57,602.08,192ZM769.55,76.43a182.19,182.19,0,0,0,30.57-8.62A185.11,185.11,0,0,1,769.55,76.43Z"/><path class="cls-1" d="M593.71,295.58a6.1,6.1,0,0,1-5-4.37c-.49-1.42-.08-3.06,0-4.52.23-2.46.39-4.93.66-7.38q.9-8.06,2.26-16c.91-5.38,2.11-10.7,3.49-16a158.21,158.21,0,0,1,5-15c1.87-5,4.06-9.93,6.4-14.75s4.94-9.83,7.78-14.54a100.65,100.65,0,0,1,9.24-12.84,110.52,110.52,0,0,1,11.74-12.06c4-3.56,8.23-6.93,12.53-10.17s8.91-6.24,13.46-9.19a213.73,213.73,0,0,1,27.86-15.15c5.26-2.4,10.68-4.44,16.13-6.37s11.07-3.77,16.67-5.41a6,6,0,1,1,3.18,11.57c-4.7,1.38-9.37,2.91-14,4.49-4.16,1.45-8.28,3-12.36,4.64s-8,3.53-12,5.46q-6.15,3.14-12.11,6.61c-4.09,2.37-8.06,5-12,7.58-3.42,2.33-6.78,4.72-10.08,7.21s-6.39,5.1-9.46,7.79c-3.39,3.14-6.59,6.4-9.66,9.84-2.16,2.58-4.22,5.23-6.17,8-1.51,2.29-3,4.6-4.34,7-1.45,2.55-2.8,5.16-4.14,7.77-1.81,3.65-3.55,7.33-5.15,11.08s-3,7.57-4.4,11.41q-1.37,4.05-2.55,8.16c-.82,2.83-1.44,5.73-2.08,8.6,0-.26.11-.52.16-.78-1.14,5.6-2.07,11.23-2.84,16.9-.66,4.84-1.07,9.71-1.51,14.57a6.64,6.64,0,0,1,0,.77,6.14,6.14,0,0,1-6.76,5.13Z"/><path class="cls-1" d="M589.87,290.67c-.23-2.23-.78-4.46-1.23-6.66.06.26.11.52.16.78a34.45,34.45,0,0,0-1.11-4.13,31.65,31.65,0,0,0-1.36-3.18c-.37-.71-.77-1.41-1.2-2.09-.6-.85-1.25-1.66-1.93-2.45-1.53-1.71-3.14-3.36-4.74-5-2.07-2.11-4.13-4.23-6.32-6.22A142,142,0,0,0,560.57,253a110.88,110.88,0,0,0-10.41-6.13,131.91,131.91,0,0,0-14.07-5.84,81.09,81.09,0,0,0-9.28-2.53,72.9,72.9,0,0,0-7.49-1c-1.52-.07-3-.08-4.55,0a48.7,48.7,0,0,0-5.51.78c-.63.14-1.24.3-1.86.48a6.85,6.85,0,0,1-3.65.13,6,6,0,0,1,1.84-11.76l-.24,0h0l-.81.06-.76.16c.62-.15,1.24-.36,1.86-.52,1.19-.31,2.43-.52,3.64-.73a48.55,48.55,0,0,1,7.33-.62,66.6,66.6,0,0,1,15.26,1.94,95.8,95.8,0,0,1,14.38,4.68,110,110,0,0,1,13.48,6.4,134.92,134.92,0,0,1,12.69,8.3,90.76,90.76,0,0,1,10.78,9c2.83,2.78,5.65,5.6,8.3,8.55a35.93,35.93,0,0,1,4.61,6.1,37.27,37.27,0,0,1,2.87,6.3,48.91,48.91,0,0,1,1.64,6.21c.41,2,.92,4.09,1.13,6.17a6.09,6.09,0,0,1-5.13,6.76,6.64,6.64,0,0,1-.77.05A6,6,0,0,1,589.87,290.67Z"/></g></g></svg>