<svg id="Layer_7" data-name="Layer 7" xmlns="http://www.w3.org/2000/svg" viewBox="0 0 1920 100"><defs><style>.cls-1{fill:#0e0836;}</style></defs><path class="cls-1" d="M1913.27,11.7h-1.63a8,8,0,0,1-2-.26c-4.78-.09-9.52-.09-14.2-.09-.18.13-.32.35-.45.35-1,.05-2,0-3,0-2.35.14-4.69.23-7,.4a61.28,61.28,0,0,0-6.33.71c-3.27.66-6.59.8-9.82,1.68-1.33.36-2.79.45-4.16.8-2.34.53-4.74.88-7.08,1.46-3.45.88-6.86,1.81-10.26,2.88-5.27,1.59-10.45,3.49-15.58,5.52a182.19,182.19,0,0,0-16.82,7.7c-4.24,2.22-8.27,4.78-12.39,7.26-2.47,1.55-5,3.19-7.43,4.87-2,1.42-4.07,2.87-6.06,4.33-2.7,2-5.35,4.12-8,6.2a35.69,35.69,0,0,0-2.79,2.43c-5,4.83-10,9.56-14.82,14.56-1.74,1.81-3.35,3.74-4.93,5.7l-3.83-1c-2.56-.57-5.07-1.32-7.62-1.84-1.8-.38-3.6-.52-5.4-.86s-3.79-.71-5.68-1.09c-1.14-.18-2.27-.28-3.46-.37-1.7-.19-3.45-.24-5.2-.43-2-.19-4.08-.57-6.16-.71a19.53,19.53,0,0,0-2.65,0h-1.75a8.53,8.53,0,0,1-2.13-.28c-5.11-.1-10.18-.1-15.2-.1-.19.14-.33.38-.47.38h-3.27c-2.51.14-5,.24-7.48.43a53.12,53.12,0,0,0-6.77.76c-3.5.71-7,.85-10.51,1.8-1.42.38-3,.47-4.45.85-2.51.56-5.06.94-7.57,1.56-3.69,1-7.34,1.94-11,3-5.64,1.75-11.17,3.79-16.67,6a194.75,194.75,0,0,0-18,8.24c-3.24,1.69-6.37,3.58-9.49,5.48H1920V12.24c-1.4-.18-2.81-.39-4.25-.49A15.78,15.78,0,0,0,1913.27,11.7Z"/><path class="cls-1" d="M283.35,90.47c-2.08-1.24-4.24-2.37-6.38-3.54-1.67-.89-3.4-1.67-5.08-2.51-1.94-1-4-1.6-6-2.43a72.64,72.64,0,0,0-7.55-2.65c-2.29-.73-4.59-1.41-6.94-2-1.46-.33-2.89-.76-4.35-1.06-1-.21-2.06-.29-3.08-.45s-2.17-.44-3.25-.62a15,15,0,0,0-2-.25c-1-.11-2-.13-3-.24-1.16-.11-2.32-.33-3.51-.41a12.68,12.68,0,0,0-1.51,0h-1a4.59,4.59,0,0,1-1.22-.16h-8.67c-.11.08-.19.21-.28.21h-1.86c-1.43.09-2.87.14-4.27.25a38.48,38.48,0,0,0-3.87.43c-2,.41-4,.49-6,1-.81.22-1.7.27-2.54.49-1.43.32-2.89.53-4.32.89-2.11.54-4.19,1.11-6.27,1.75-3.22,1-6.38,2.14-9.52,3.38a110.64,110.64,0,0,0-10.27,4.71c-1,.54-2.06,1.12-3.07,1.72-.56-.63-1.13-1.24-1.71-1.85C163,84,160,80.8,157,77.82c-3.7-3.66-7.46-7.26-11.42-10.6A197.84,197.84,0,0,0,129.68,55c-4.73-3.29-9.47-6.48-14.41-9.47-4-2.37-8.08-4.53-12.14-6.74-3.19-1.7-6.48-3.19-9.68-4.79-3.7-1.8-7.61-3-11.37-4.63a142.6,142.6,0,0,0-14.36-5A137.39,137.39,0,0,0,54.5,20.6c-2.78-.62-5.51-1.45-8.28-2-2-.42-3.92-.57-5.87-.88s-4.12-.82-6.18-1.18a31.49,31.49,0,0,0-3.75-.47c-1.86-.2-3.76-.25-5.66-.46-2.22-.2-4.43-.61-6.69-.77a18.6,18.6,0,0,0-2.89-.05h-1.9A9.22,9.22,0,0,1,11,14.47c-3.68-.07-7.33-.08-11-.09V100H297c-2-1.6-4-3.13-6.05-4.55C288.43,93.72,286,92,283.35,90.47Z"/></svg>