<svg id="Layer_7" data-name="Layer 7" xmlns="http://www.w3.org/2000/svg" viewBox="0 0 1920 100"><defs><style>.cls-1{fill:#481f64;}</style></defs><path class="cls-1" d="M1309,98.75c-4.71-2.88-9.59-5.85-14.57-8.45A267.15,267.15,0,0,0,1269,78.69c-8.69-3.45-16.38-6.2-23.51-8.42-4.78-1.43-9.84-2.82-15.49-4.27-2-.48-4-.87-5.91-1.24-1.57-.3-3.19-.61-4.77-1-1-.25-2.08-.45-3.13-.6a30.72,30.72,0,0,1-3.15-.61,65.68,65.68,0,0,0-8.69-1.57c-2-.27-4.1-.55-6.14-1a79.81,79.81,0,0,0-9.51-1c-2.29-.17-4.66-.29-6.94-.41-1.21,0-2.41-.12-3.62-.19h-4.6c-.12,0-.25-.12-.39-.27a1.73,1.73,0,0,0-.28-.26c-7,0-14.22,0-21.44.14a12.66,12.66,0,0,1-3,.39h-3.94a14.61,14.61,0,0,0-2.23.11c-1.65.12-3.3.34-4.89.55-1.24.17-2.53.34-3.79.45s-2.43.22-3.62.3-2.5.17-3.72.3c-1.51.13-3.22.26-4.88.54l-2.07.42c-2,.4-4,.82-5.94,1.12-1.13.2-2.27.36-3.38.51-1.39.19-2.82.39-4.23.68-2,.41-4,.93-5.94,1.43-1.57.4-3.2.82-4.82,1.18-5.22,1.2-10.83,2.78-17.16,4.81-4.73,1.46-9.76,3-14.72,5-3-3.09-6.23-6.15-9.31-9.11-1.46-1.41-2.93-2.81-4.37-4.22a37.39,37.39,0,0,0-3-2.61c-3.08-2.46-5.87-4.62-8.52-6.63-2.23-1.63-4.41-3.19-6.49-4.63-2.83-2-5.43-3.67-8-5.21l-2.95-1.79c-3.34-2-6.78-4.14-10.3-6a190.91,190.91,0,0,0-18-8.23c-6.16-2.45-11.61-4.4-16.66-6-3.46-1-7.06-2-11-3-1.4-.34-2.83-.62-4.22-.88-1.12-.21-2.25-.43-3.36-.68a21,21,0,0,0-2.21-.42c-.75-.12-1.52-.24-2.24-.43a47.64,47.64,0,0,0-6.16-1.12c-1.43-.19-2.9-.39-4.35-.69a55,55,0,0,0-6.77-.75c-1.68-.13-3.37-.21-5.08-.3l-2.4-.13h-3.27c-.08,0-.17-.09-.27-.19a1.8,1.8,0,0,0-.2-.19c-5,0-10.08,0-15.2.1a8.53,8.53,0,0,1-2.13.28h-2.83c-.52,0-1,0-1.57.08-1.17.08-2.34.24-3.48.39-.89.12-1.78.24-2.67.32l-2.6.21c-.86.06-1.75.12-2.61.21-1.17.1-2.32.2-3.46.38l-1.42.3c-1.4.28-2.84.58-4.26.79-.8.15-1.6.26-2.4.37-1,.14-2,.28-3,.48-1.42.3-2.86.66-4.24,1-1.12.29-2.25.58-3.38.84-3.68.84-7.66,1.95-12.17,3.4a130.66,130.66,0,0,0-13.2,4.64c-1.34.57-2.74,1.1-4.08,1.61-2.13.8-4.33,1.64-6.39,2.65-1.08.54-2.17,1.07-3.27,1.6C827.79,33,825.88,34,824,35l-2.45,1.33c-2.89,1.55-5.87,3.17-8.72,4.87-5,3-9.71,6.23-13.25,8.71L795.29,53c-2.1-.59-4.2-1.15-6.33-1.69-1.39-.35-2.83-.62-4.21-.88-1.13-.22-2.25-.43-3.36-.68-.73-.19-1.48-.31-2.22-.43a18.67,18.67,0,0,1-2.23-.43,47.61,47.61,0,0,0-6.16-1.11c-1.43-.19-2.91-.39-4.35-.69a55,55,0,0,0-6.77-.76c-1.68-.12-3.38-.21-5.09-.3l-2.39-.12h-3.27c-.09,0-.17-.09-.27-.2a1.71,1.71,0,0,0-.2-.18c-5,0-10.09,0-15.21.09a8.88,8.88,0,0,1-2.12.29h-2.83c-.52,0-1,0-1.57.07-1.18.08-2.35.24-3.48.39-.9.12-1.79.24-2.68.32s-1.73.16-2.59.21-1.75.13-2.62.22c-1.17.09-2.32.19-3.45.38l-1.42.29c-1.4.29-2.85.59-4.26.8-.8.15-1.6.26-2.41.37-1,.13-2,.27-3,.48-1.43.29-2.86.66-4.25,1-1.12.29-2.24.58-3.37.83-3.68.85-7.66,2-12.17,3.41a131.71,131.71,0,0,0-13.21,4.64c-1.34.56-2.73,1.09-4.08,1.6-2.12.81-4.32,1.64-6.38,2.66-1.08.54-2.18,1.07-3.28,1.59-1.85.9-3.77,1.82-5.62,2.81L646,69.23c-2.88,1.56-5.87,3.17-8.71,4.87-5,3-9.71,6.24-13.26,8.71-5.52,3.77-10.7,8-14.58,11.27-1.9,1.6-3.91,3.42-6.13,5.53l-.15.14-.26.25H1311Z"/></svg>