<svg xmlns="http://www.w3.org/2000/svg" viewBox="0 0 1175.41 699.68"><defs><style>.cls-1{fill:#f2b8ff;}</style></defs><g id="Layer_2" data-name="Layer 2"><g id="Vector_layer" data-name="Vector layer"><path class="cls-1" d="M1175,474.83a8.54,8.54,0,0,1,0-1.43,53.25,53.25,0,0,0-.79-10.62c-.31-1.6-.23-3.29-.45-4.91-.3-2-.77-4-1.14-6q-.45-2.48-.87-4.92c-.41-2.27-.75-4.54-1.24-6.8-.44-2-1.07-4-1.6-6-.69-2.64-1.26-5.3-2.07-7.88-1.12-3.65-2.36-7.29-3.64-10.88-1-2.76-2.17-5.47-3.2-8.21-1.71-4.51-3.76-8.87-5.9-13.19s-4.54-8.82-7-13.16c-3-5.39-6.4-10.52-9.91-15.58-1.64-2.37-3.33-4.73-5.1-7-2.51-3.3-5.11-6.55-7.73-9.78-1.14-1.38-2.36-2.7-3.6-4-2.9-3.07-5.75-6.2-8.77-9.14-3.62-3.53-7.29-7.07-11.15-10.32-5-4.22-10.11-8.3-15.51-12-4.63-3.18-9.24-6.33-14-9.22-3.9-2.31-7.9-4.42-11.88-6.6-3.11-1.68-6.32-3.1-9.47-4.67-3.57-1.76-7.43-3-11.1-4.55a145.1,145.1,0,0,0-14-4.93c-4.26-1.34-8.57-2.58-12.93-3.57-2.7-.63-5.38-1.43-8.1-2-1.89-.41-3.84-.53-5.75-.88s-4-.79-6-1.15c-1.2-.21-2.44-.33-3.65-.45-1.85-.16-3.7-.23-5.53-.43-2.19-.22-4.37-.58-6.58-.77a26.19,26.19,0,0,0-2.94,0c-.57,0-1.14,0-1.71,0a13.41,13.41,0,0,1-2.25-.3c-5.46-.1-10.8-.1-16.15-.1-.18.14-.34.38-.52.38-.58,0-1.16,0-1.73,0s-1.15,0-1.72,0c-2.66.12-5.32.22-8,.43a59.16,59.16,0,0,0-7.17.83c-.28.06-.57.1-.85.15-.18-.94-.37-1.89-.57-2.83-.73-3.31-1.76-6.56-2.62-9.84-1.13-4.31-2.05-8.65-3.38-12.86-1.82-6-3.85-11.9-5.93-17.77-1.63-4.5-3.55-8.91-5.24-13.38-2.79-7.36-6.13-14.49-9.61-21.55-3.58-7.29-7.43-14.38-11.4-21.47-4.94-8.78-10.44-17.17-16.17-25.42-2.69-3.88-5.44-7.72-8.32-11.47-4.11-5.4-8.36-10.7-12.63-16-1.85-2.26-3.84-4.41-5.87-6.53-4.73-5-9.38-10.11-14.31-14.92-5.9-5.76-11.9-11.53-18.2-16.83-8.19-6.89-16.5-13.56-25.32-19.59-7.55-5.2-15.08-10.34-22.93-15-6.37-3.77-12.9-7.22-19.39-10.76-5.07-2.75-10.31-5.08-15.44-7.63-5.84-2.88-12.13-4.84-18.13-7.42-7.43-3.18-15.12-5.63-22.84-8.06-7-2.18-14-4.2-21.11-5.83-4.4-1-8.78-2.32-13.22-3.24-3.08-.67-6.27-.87-9.38-1.43C648,4.71,644.76,4,641.48,3.38c-2-.33-4-.53-6-.73-3-.26-6-.36-9-.7-3.58-.36-7.13-1-10.74-1.25A45.19,45.19,0,0,0,611,.64c-.93,0-1.86,0-2.79,0a21,21,0,0,1-3.68-.5C595.58,0,586.86,0,578.15,0c-.3.23-.57.63-.87.63-.94,0-1.89,0-2.83,0s-1.87,0-2.8,0c-4.34.2-8.68.37-13,.7A97.46,97.46,0,0,0,547,2.72c-6,1.19-12.23,1.46-18.23,3.11-2.45.67-5.14.8-7.72,1.43-4.34,1-8.78,1.62-13.13,2.72-6.36,1.62-12.72,3.38-19,5.3-9.74,3-19.35,6.49-28.87,10.27a336.26,336.26,0,0,0-31.18,14.32C421,44,413.47,48.72,405.88,53.32c-4.68,2.86-9.29,5.9-13.82,9-3.82,2.58-7.56,5.3-11.24,8-5,3.78-9.91,7.63-14.78,11.5-1.79,1.4-3.52,2.89-5.14,4.44-9.21,9-18.66,17.73-27.54,27-6,6.27-11.1,13.29-16.73,19.86-6.17,7.22-11.47,15.07-16.81,22.9-4.24,6.23-8.28,12.66-11.93,19.25-2.07,3.75-4.09,7.53-6.09,11.33-.84-.1-1.69-.2-2.55-.27a35.56,35.56,0,0,0-3.58,0l-2.08,0a17.56,17.56,0,0,1-2.74-.37c-6.65-.13-13.15-.13-19.65-.13-.22.17-.42.47-.64.47-.71,0-1.41,0-2.11,0s-1.4,0-2.1,0c-3.24.15-6.47.27-9.68.51a75,75,0,0,0-8.73,1c-4.5.89-9.12,1.08-13.6,2.32-1.83.49-3.83.6-5.76,1.06-3.24.77-6.55,1.22-9.79,2-4.74,1.21-9.49,2.52-14.18,4-7.27,2.22-14.44,4.84-21.53,7.66a248.08,248.08,0,0,0-23.27,10.68c-5.85,3-11.44,6.6-17.1,10-3.49,2.13-6.92,4.4-10.31,6.73-2.84,1.93-5.63,4-8.38,6q-5.56,4.23-11,8.58a46.73,46.73,0,0,0-3.83,3.32c-6.88,6.67-13.92,13.22-20.54,20.14-4.45,4.67-8.29,9.91-12.49,14.8a197.06,197.06,0,0,0-12.53,17.09c-3.16,4.65-6.18,9.44-8.9,14.36-3.9,7.07-7.64,14.29-11.17,21.55-2.18,4.45-3.79,9.15-5.71,13.7a209.58,209.58,0,0,0-7.07,20.32A123.46,123.46,0,0,0,6.93,387c-.6,3.31-1.71,6.55-2.4,9.86-.5,2.38-.65,4.85-1,7.25-.45,2.76-1,5.51-1.46,8.28-.27,1.9,0,3.93-.57,5.7-.79,2.5.17,5.12-.91,7.54-.1.2,0,.48,0,.72-.17,6.46-.37,12.9-.49,19.33q-.12,5.56,0,11.13c.09,3.63.24,7.29.49,10.92.24,3.31.54,6.65,1,10,.55,4,1.29,7.87,1.95,11.8s1.22,8,2,12c.72,3.71,1.56,7.39,2.57,11,1.95,6.92,3.83,13.86,6.3,20.64,1.36,3.71,2.67,7.44,4.18,11.1,3.11,7.53,6.33,15.05,10.18,22.24,3.07,5.74,6.06,11.55,9.69,17,3,4.45,5.59,9.12,8.65,13.47s6.53,8.7,9.94,12.95c2.65,3.29,5.49,6.45,8.18,9.71a191.93,191.93,0,0,0,14.88,15.82c3.49,3.37,7,6.68,10.78,9.77,5.37,4.45,10.78,8.82,16.42,12.92,5,3.64,10.33,6.83,15.49,10.26s10.81,6.46,16.34,9.5c5.37,2.91,11,5.36,16.47,8,4.27,2,8.65,3.81,13.07,5.44,5.22,1.95,10.46,3.86,15.84,5.36,3.55,1,7.07,2.06,10.63,3H995.4c1.57-.24,3.12-.49,4.66-.77,1.89-.33,3.74-.78,5.61-1.2,4.67-1.12,9.32-2.26,14-3.51,5-1.35,9.8-3.13,14.72-4.66,2.8-.87,5.48-2.13,8.22-3.2a187.77,187.77,0,0,0,20.51-9.77q5.25-2.84,10.36-5.89c2.51-1.48,5-3,7.41-4.67,3.21-2.24,6.33-4.61,9.5-7,3.8-2.78,7.35-5.84,11-8.85,6.54-5.42,12.35-11.57,18.26-17.6,3.3-3.37,6.25-7.09,9.21-10.79,4.84-6,9.26-12.32,13.49-18.78,2-2.94,3.77-6,5.46-9.1,2.58-4.75,5.12-9.52,7.45-14.38,2.07-4.28,4-8.63,5.63-13.09,1.36-3.7,2.82-7.37,4-11.13a151.19,151.19,0,0,0,4.47-15.62c.81-4,2-7.86,2.78-11.81.59-2.85.75-5.77,1.28-8.64.6-3.32.79-6.72,1.28-10,.38-2.68.14-5.32.32-8a3,3,0,0,1,.3-1c.11-8.43.11-16.76.11-25.08C1175.26,475.05,1175,475,1175,474.83Z"/></g></g></svg>