<?xml version="1.0" encoding="utf-8"?>
<!-- Generator: Adobe Illustrator 25.2.1, SVG Export Plug-In . SVG Version: 6.00 Build 0)  -->
<svg version="1.1" id="Layer_1" xmlns="http://www.w3.org/2000/svg" xmlns:xlink="http://www.w3.org/1999/xlink" x="0px" y="0px"
	 viewBox="0 0 206.4 95.3" style="enable-background:new 0 0 206.4 95.3;" xml:space="preserve">
<style type="text/css">
	.st0{enable-background:new    ;}
	.st1{fill:#F2B8FF;}
</style>
<g id="Layer_2_1_">
	<g id="CLOUD">
		<g class="st0">
			<path class="st1" d="M3.5,51.2V32.8c0-12,8.1-20.4,19.9-20.4c11.7,0,18.7,7.5,19.4,16.4c0.3,4.4-1.9,6.7-6.3,6.7H35
				c-5.4,0-5.9-2.4-6.4-4.8c-0.5-2.1-1-4.1-5.1-4.1c-2.1,0-5,0.6-5,5.6v19.4c0,5.1,2.6,5.7,5,5.7c4.2,0,4.7-2.2,5.2-4.5
				c0.5-2.5,1.1-5.2,6.4-5.2h1.4c4.8,0,6.7,3.2,6.4,7.6c-0.7,8.9-7.7,16.4-19.4,16.4C11.7,71.7,3.5,63.3,3.5,51.2z"/>
		</g>
		<g class="st0">
			<path class="st1" d="M53.8,71.7c-4.4,0-6.7-2.4-6.7-6.7V19.1c0-4.4,2.4-6.7,6.7-6.7h1.5c4.4,0,6.7,2.4,6.7,6.7v38.3h9.7
				c4.4,0,6.7,2.4,6.7,6.7v0.8c0,4.4-2.4,6.7-6.7,6.7H53.8z"/>
		</g>
		<g class="st0">
			<path class="st1" d="M77.9,51.2V32.8c0-12.1,8.1-20.5,19.9-20.5c11.6,0,19.8,8.4,19.8,20.5v18.4c0,12-8.2,20.4-19.8,20.4
				C86,71.7,77.9,63.3,77.9,51.2z M102.6,51.7V32.3c0-5.1-2.6-5.7-4.9-5.7c-2.4,0-5,0.6-5,5.7v19.4c0,5,2.9,5.6,5,5.6
				S102.6,56.8,102.6,51.7z"/>
			<path class="st1" d="M121.5,51.2V19.1c0-4.4,2.4-6.7,6.7-6.7h1.4c4.4,0,6.7,2.4,6.7,6.7v32.7c0,5,2.9,5.6,5,5.6
				c2.1,0,4.9-0.6,4.9-5.6V19.1c0-4.4,2.4-6.7,6.7-6.7h1.5c4.4,0,6.7,2.4,6.7,6.7v32.2c0,12-8.2,20.4-19.8,20.4
				C129.5,71.7,121.5,63.3,121.5,51.2z"/>
			<path class="st1" d="M173.4,71.7c-4.4,0-6.7-2.4-6.7-6.7V19.1c0-4.4,2.4-6.7,6.7-6.7h13.2c11.7,0,19.8,7.9,19.8,22.3v15.1
				c0,14.3-8.1,21.9-19.8,21.9H173.4z M181.6,57.5h3.1c2.9,0,6.9-0.8,6.9-8V34.7c0-7.1-3.7-8.1-6.9-8.1h-3.1V57.5z"/>
		</g>
	</g>
</g>
</svg>
